<svg xmlns="http://www.w3.org/2000/svg" xmlns:xlink="http://www.w3.org/1999/xlink" width="513" zoomAndPan="magnify" viewBox="0 0 384.75 108.749999" height="145" preserveAspectRatio="xMidYMid meet" version="1.0"><defs><g/></defs><g fill="#ff00ff" fill-opacity="1"><g transform="translate(109.659951, 55.777458)"><g><path d="M 2.078125 -24.171875 C 2.035156 -24.203125 2.070312 -24.226562 2.1875 -24.25 C 2.3125 -24.269531 2.664062 -24.28125 3.25 -24.28125 C 3.832031 -24.28125 4.675781 -24.28125 5.78125 -24.28125 L 9.65625 -24.28125 L 9.65625 2.734375 L 2.625 2.734375 L 2.625 -23.640625 L 2.4375 -23.859375 C 2.363281 -23.992188 2.242188 -24.097656 2.078125 -24.171875 Z M 10.640625 -24.28125 L 13.578125 -24.28125 C 14.367188 -24.28125 15.019531 -24.28125 15.53125 -24.28125 C 16.050781 -24.28125 16.441406 -24.269531 16.703125 -24.25 C 17.773438 -24.175781 18.773438 -23.84375 19.703125 -23.25 C 20.628906 -22.664062 21.378906 -21.929688 21.953125 -21.046875 C 22.804688 -19.734375 23.210938 -18.320312 23.171875 -16.8125 C 23.148438 -16.238281 23.078125 -15.75 22.953125 -15.34375 C 22.660156 -14.476562 22.15625 -13.722656 21.4375 -13.078125 C 20.726562 -12.429688 19.914062 -12.046875 19 -11.921875 C 18.613281 -11.847656 18.410156 -11.800781 18.390625 -11.78125 C 18.390625 -11.726562 18.5 -11.703125 18.71875 -11.703125 C 19.507812 -11.703125 20.210938 -11.554688 20.828125 -11.265625 C 21.453125 -10.984375 21.984375 -10.597656 22.421875 -10.109375 C 22.867188 -9.617188 23.226562 -9.050781 23.5 -8.40625 C 23.78125 -7.757812 23.957031 -7.066406 24.03125 -6.328125 C 24.15625 -4.859375 23.890625 -3.492188 23.234375 -2.234375 C 22.734375 -1.148438 22.035156 -0.226562 21.140625 0.53125 C 20.242188 1.300781 19.242188 1.878906 18.140625 2.265625 C 17.847656 2.378906 17.570312 2.46875 17.3125 2.53125 C 17.050781 2.59375 16.8125 2.632812 16.59375 2.65625 C 16.351562 2.675781 15.984375 2.6875 15.484375 2.6875 C 14.984375 2.6875 14.320312 2.6875 13.5 2.6875 L 10.640625 2.734375 L 10.640625 -2.234375 L 12.390625 -2.234375 C 12.867188 -2.234375 13.257812 -2.238281 13.5625 -2.25 C 13.863281 -2.257812 14.097656 -2.273438 14.265625 -2.296875 C 14.523438 -2.316406 14.832031 -2.414062 15.1875 -2.59375 C 15.40625 -2.726562 15.628906 -2.921875 15.859375 -3.171875 C 16.085938 -3.429688 16.25 -3.679688 16.34375 -3.921875 C 16.582031 -4.421875 16.6875 -5.003906 16.65625 -5.671875 C 16.632812 -6.347656 16.503906 -6.925781 16.265625 -7.40625 C 16.148438 -7.613281 15.976562 -7.828125 15.75 -8.046875 C 15.519531 -8.265625 15.3125 -8.421875 15.125 -8.515625 C 14.789062 -8.703125 14.488281 -8.8125 14.21875 -8.84375 C 14.082031 -8.863281 13.863281 -8.875 13.5625 -8.875 C 13.257812 -8.875 12.867188 -8.875 12.390625 -8.875 L 10.640625 -8.875 L 10.640625 -14.15625 L 12.0625 -14.15625 C 12.519531 -14.15625 12.890625 -14.15625 13.171875 -14.15625 C 13.460938 -14.15625 13.671875 -14.164062 13.796875 -14.1875 C 14.515625 -14.351562 15.070312 -14.722656 15.46875 -15.296875 C 15.863281 -15.878906 16 -16.539062 15.875 -17.28125 C 15.757812 -17.832031 15.570312 -18.253906 15.3125 -18.546875 C 15.0625 -18.847656 14.769531 -19.070312 14.4375 -19.21875 C 14.101562 -19.363281 13.734375 -19.445312 13.328125 -19.46875 C 12.921875 -19.488281 12.488281 -19.5 12.03125 -19.5 L 10.640625 -19.5 Z M 10.640625 -24.28125 "/></g></g></g><g fill="#ff00ff" fill-opacity="1"><g transform="translate(135.161373, 55.777458)"><g><path d="M 2.046875 -24.21875 C 2.691406 -24.21875 3.804688 -24.226562 5.390625 -24.25 C 6.753906 -24.25 8.695312 -24.253906 11.21875 -24.265625 C 13.75 -24.273438 17.085938 -24.28125 21.234375 -24.28125 L 21.234375 -18.71875 L 9.875 -18.71875 L 9.875 -2.84375 L 22.265625 -2.84375 L 22.265625 -2.65625 C 22.265625 -2.675781 22.242188 -2.609375 22.203125 -2.453125 C 22.171875 -2.304688 22.125 -2.097656 22.0625 -1.828125 C 22.007812 -1.566406 21.953125 -1.273438 21.890625 -0.953125 C 21.828125 -0.628906 21.765625 -0.3125 21.703125 0 C 21.335938 1.695312 21.144531 2.570312 21.125 2.625 C 21.101562 2.695312 18.035156 2.734375 11.921875 2.734375 L 2.796875 2.734375 L 2.796875 -10.3125 C 2.796875 -14.695312 2.789062 -17.945312 2.78125 -20.0625 C 2.769531 -22.175781 2.738281 -23.320312 2.6875 -23.5 C 2.625 -23.851562 2.410156 -24.09375 2.046875 -24.21875 Z M 11.0625 -13.71875 L 20.65625 -13.71875 L 20.65625 -8.21875 L 11.0625 -8.21875 Z M 11.0625 -13.71875 "/></g></g></g><g fill="#ff00ff" fill-opacity="1"><g transform="translate(158.651416, 55.777458)"><g><path d="M 0.71875 -24.28125 L 21.875 -24.28125 L 21.875 -18.78125 L 0.71875 -18.78125 Z M 7.40625 -17.53125 L 7.21875 -17.703125 L 14.984375 -17.703125 L 14.984375 2.734375 L 7.71875 2.734375 L 7.71875 -7.046875 C 7.71875 -10.390625 7.71875 -12.90625 7.71875 -14.59375 C 7.71875 -16.289062 7.707031 -17.160156 7.6875 -17.203125 C 7.664062 -17.296875 7.570312 -17.40625 7.40625 -17.53125 Z M 7.40625 -17.53125 "/></g></g></g><g fill="#ff00ff" fill-opacity="1"><g transform="translate(181.243525, 55.777458)"><g><path d="M 7.25 -24.171875 C 7.1875 -24.203125 7.210938 -24.226562 7.328125 -24.25 C 7.492188 -24.269531 8 -24.28125 8.84375 -24.28125 C 9.695312 -24.28125 10.832031 -24.28125 12.25 -24.28125 L 17.640625 -24.28125 L 17.890625 -23.5625 C 18.003906 -23.0625 18.21875 -22.304688 18.53125 -21.296875 C 18.726562 -20.679688 18.882812 -20.15625 19 -19.71875 C 19.125 -19.289062 19.207031 -18.957031 19.25 -18.71875 C 19.28125 -18.570312 19.460938 -17.945312 19.796875 -16.84375 C 20.128906 -15.769531 20.378906 -14.910156 20.546875 -14.265625 C 20.804688 -13.378906 21.054688 -12.515625 21.296875 -11.671875 C 21.535156 -10.835938 21.773438 -10.035156 22.015625 -9.265625 C 22.066406 -9.097656 22.128906 -8.890625 22.203125 -8.640625 C 22.273438 -8.390625 22.367188 -8.097656 22.484375 -7.765625 C 22.578125 -7.421875 22.648438 -7.144531 22.703125 -6.9375 C 22.753906 -6.738281 22.789062 -6.601562 22.8125 -6.53125 C 22.832031 -6.488281 22.859375 -6.382812 22.890625 -6.21875 C 22.929688 -6.050781 23 -5.832031 23.09375 -5.5625 C 23.289062 -5.007812 23.398438 -4.628906 23.421875 -4.421875 C 23.441406 -4.347656 23.472656 -4.210938 23.515625 -4.015625 C 23.566406 -3.828125 23.625 -3.628906 23.6875 -3.421875 C 23.75 -3.222656 23.804688 -3.039062 23.859375 -2.875 C 23.921875 -2.707031 23.953125 -2.597656 23.953125 -2.546875 C 23.984375 -2.523438 24.070312 -2.25 24.21875 -1.71875 C 24.238281 -1.625 24.289062 -1.425781 24.375 -1.125 C 24.457031 -0.832031 24.546875 -0.535156 24.640625 -0.234375 C 24.734375 0.0664062 24.816406 0.34375 24.890625 0.59375 C 24.960938 0.84375 25.007812 0.976562 25.03125 1 C 25.03125 1.101562 25.066406 1.273438 25.140625 1.515625 C 25.210938 1.753906 25.273438 1.90625 25.328125 1.96875 C 25.347656 2.113281 25.367188 2.238281 25.390625 2.34375 C 25.421875 2.457031 25.445312 2.550781 25.46875 2.625 C 25.488281 2.644531 25.453125 2.664062 25.359375 2.6875 C 25.265625 2.71875 24.9375 2.734375 24.375 2.734375 C 23.8125 2.734375 23.0625 2.734375 22.125 2.734375 L 18.421875 2.734375 L 18.28125 2.296875 C 18.238281 2.179688 18.191406 2.03125 18.140625 1.84375 C 18.085938 1.664062 18.039062 1.457031 18 1.21875 C 18 1.175781 17.972656 1.066406 17.921875 0.890625 C 17.878906 0.722656 17.820312 0.507812 17.75 0.25 C 17.65625 -0.0078125 17.578125 -0.253906 17.515625 -0.484375 C 17.453125 -0.710938 17.394531 -0.921875 17.34375 -1.109375 L 16.921875 -2.84375 L 8.796875 -2.84375 L 8.734375 -2.59375 C 8.515625 -1.820312 8.3125 -1.085938 8.125 -0.390625 C 7.945312 0.296875 7.789062 0.941406 7.65625 1.546875 L 7.328125 2.734375 L 3.65625 2.734375 C 2.707031 2.703125 1.945312 2.679688 1.375 2.671875 C 0.8125 2.660156 0.53125 2.644531 0.53125 2.625 C 1.226562 0.445312 1.890625 -1.734375 2.515625 -3.921875 C 3.140625 -6.117188 3.75 -8.332031 4.34375 -10.5625 C 4.34375 -10.613281 4.390625 -10.800781 4.484375 -11.125 C 4.585938 -11.445312 4.660156 -11.703125 4.703125 -11.890625 C 4.828125 -12.242188 4.9375 -12.597656 5.03125 -12.953125 C 5.125 -13.316406 5.21875 -13.691406 5.3125 -14.078125 C 5.40625 -14.410156 5.503906 -14.78125 5.609375 -15.1875 C 5.722656 -15.601562 5.851562 -16.050781 6 -16.53125 C 6.019531 -16.59375 6.050781 -16.726562 6.09375 -16.9375 C 6.144531 -17.144531 6.203125 -17.359375 6.265625 -17.578125 C 6.328125 -17.804688 6.382812 -18.019531 6.4375 -18.21875 C 6.5 -18.425781 6.53125 -18.554688 6.53125 -18.609375 C 6.582031 -18.722656 6.628906 -18.863281 6.671875 -19.03125 C 6.722656 -19.207031 6.785156 -19.414062 6.859375 -19.65625 C 6.984375 -20.132812 7.054688 -20.40625 7.078125 -20.46875 C 7.128906 -20.59375 7.179688 -20.796875 7.234375 -21.078125 C 7.296875 -21.367188 7.382812 -21.726562 7.5 -22.15625 C 7.695312 -22.738281 7.796875 -23.097656 7.796875 -23.234375 C 7.796875 -23.671875 7.613281 -23.984375 7.25 -24.171875 Z M 13.328125 -16.453125 C 13.035156 -17.597656 12.867188 -18.171875 12.828125 -18.171875 C 12.773438 -18.023438 12.664062 -17.570312 12.5 -16.8125 C 12.445312 -16.625 12.382812 -16.363281 12.3125 -16.03125 C 12.25 -15.707031 12.15625 -15.304688 12.03125 -14.828125 C 11.988281 -14.691406 11.90625 -14.359375 11.78125 -13.828125 C 11.664062 -13.304688 11.535156 -12.753906 11.390625 -12.171875 C 11.191406 -11.503906 11 -10.773438 10.8125 -9.984375 C 10.570312 -9.023438 10.453125 -8.507812 10.453125 -8.4375 C 10.453125 -8.394531 11.28125 -8.375 12.9375 -8.375 L 15.40625 -8.375 L 15.34375 -8.734375 C 15.144531 -9.492188 14.878906 -10.515625 14.546875 -11.796875 C 14.210938 -13.078125 13.804688 -14.628906 13.328125 -16.453125 Z M 13.328125 -16.453125 "/></g></g></g><g fill="#ff00ff" fill-opacity="1"><g transform="translate(207.283709, 55.777458)"><g/></g></g><g fill="#ff00ff" fill-opacity="1"><g transform="translate(214.467211, 55.777458)"><g><path d="M 14.265625 -24.5 L 14.828125 -24.5 C 16.003906 -24.5 17.144531 -24.335938 18.25 -24.015625 C 19.351562 -23.691406 20.359375 -23.21875 21.265625 -22.59375 C 22.171875 -21.96875 22.957031 -21.203125 23.625 -20.296875 C 24.300781 -19.390625 24.796875 -18.347656 25.109375 -17.171875 C 25.203125 -16.765625 25.269531 -16.421875 25.3125 -16.140625 C 25.363281 -15.867188 25.390625 -15.648438 25.390625 -15.484375 L 25.390625 -15.265625 L 18.28125 -15.265625 L 18.140625 -15.625 C 17.992188 -16.101562 17.769531 -16.59375 17.46875 -17.09375 C 17.175781 -17.601562 16.863281 -17.960938 16.53125 -18.171875 C 16.019531 -18.609375 15.332031 -18.875 14.46875 -18.96875 L 14.265625 -19 Z M 12.640625 -24.46875 C 12.691406 -24.488281 12.835938 -24.5 13.078125 -24.5 L 13.328125 -24.5 L 13.328125 -19.109375 L 12.96875 -18.96875 C 12.269531 -18.707031 11.644531 -18.222656 11.09375 -17.515625 C 10.550781 -16.804688 10.109375 -15.910156 9.765625 -14.828125 C 9.578125 -14.234375 9.445312 -13.546875 9.375 -12.765625 C 9.300781 -11.992188 9.289062 -11.148438 9.34375 -10.234375 C 9.363281 -9.660156 9.421875 -9.003906 9.515625 -8.265625 C 9.609375 -7.523438 9.765625 -6.800781 9.984375 -6.09375 C 10.203125 -5.382812 10.492188 -4.734375 10.859375 -4.140625 C 11.234375 -3.554688 11.722656 -3.125 12.328125 -2.84375 C 12.441406 -2.789062 12.5625 -2.742188 12.6875 -2.703125 C 12.820312 -2.671875 12.953125 -2.632812 13.078125 -2.59375 L 13.40625 -2.515625 L 13.40625 2.953125 L 12.828125 2.90625 C 9.566406 2.71875 7.015625 1.707031 5.171875 -0.125 C 3.328125 -1.957031 2.191406 -4.414062 1.765625 -7.5 C 1.734375 -7.738281 1.707031 -8.035156 1.6875 -8.390625 C 1.664062 -8.753906 1.65625 -9.203125 1.65625 -9.734375 C 1.601562 -10.804688 1.601562 -11.617188 1.65625 -12.171875 C 1.96875 -15.484375 3.054688 -18.222656 4.921875 -20.390625 C 6.785156 -22.554688 9.359375 -23.914062 12.640625 -24.46875 Z M 18.171875 -6.109375 L 18.28125 -6.359375 L 21.953125 -6.359375 C 24.367188 -6.410156 25.578125 -6.398438 25.578125 -6.328125 C 25.578125 -6.273438 25.539062 -6.007812 25.46875 -5.53125 C 25.226562 -4.1875 24.800781 -2.992188 24.1875 -1.953125 C 23.582031 -0.910156 22.820312 -0.03125 21.90625 0.6875 C 21 1.40625 19.960938 1.953125 18.796875 2.328125 C 17.640625 2.710938 16.390625 2.921875 15.046875 2.953125 L 14.265625 2.984375 L 14.265625 -2.40625 L 14.546875 -2.4375 C 15.484375 -2.5625 16.238281 -2.882812 16.8125 -3.40625 C 17.457031 -4.082031 17.910156 -4.984375 18.171875 -6.109375 Z M 18.171875 -6.109375 "/></g></g></g><g fill="#ff00ff" fill-opacity="1"><g transform="translate(241.29759, 55.777458)"><g><path d="M 13.109375 -24.5 C 13.304688 -24.550781 13.472656 -24.578125 13.609375 -24.578125 C 13.710938 -24.578125 13.8125 -24.578125 13.90625 -24.578125 L 14.046875 -24.609375 L 14.046875 -21.796875 C 14.046875 -19.910156 14.007812 -18.96875 13.9375 -18.96875 C 13.550781 -18.96875 13 -18.800781 12.28125 -18.46875 C 10.15625 -17.457031 9.148438 -14.773438 9.265625 -10.421875 C 9.285156 -9.703125 9.363281 -8.898438 9.5 -8.015625 C 9.632812 -7.128906 9.867188 -6.273438 10.203125 -5.453125 C 10.535156 -4.640625 10.988281 -3.929688 11.5625 -3.328125 C 12.132812 -2.734375 12.867188 -2.378906 13.765625 -2.265625 L 14.015625 -2.234375 L 14.046875 0.4375 L 14.046875 3.125 L 13.6875 3.125 C 12.75 3.125 11.8125 3.007812 10.875 2.78125 C 9.945312 2.550781 9.0625 2.226562 8.21875 1.8125 C 7.382812 1.394531 6.609375 0.875 5.890625 0.25 C 5.171875 -0.375 4.546875 -1.082031 4.015625 -1.875 C 2.796875 -3.664062 2.007812 -5.925781 1.65625 -8.65625 C 1.625 -8.875 1.609375 -9.171875 1.609375 -9.546875 C 1.609375 -9.929688 1.609375 -10.398438 1.609375 -10.953125 C 1.609375 -11.484375 1.613281 -11.9375 1.625 -12.3125 C 1.644531 -12.695312 1.664062 -13.007812 1.6875 -13.25 C 1.851562 -14.40625 2.140625 -15.523438 2.546875 -16.609375 C 2.953125 -17.703125 3.484375 -18.710938 4.140625 -19.640625 C 4.804688 -20.578125 5.585938 -21.398438 6.484375 -22.109375 C 7.378906 -22.816406 8.40625 -23.363281 9.5625 -23.75 C 10.613281 -24.175781 11.796875 -24.425781 13.109375 -24.5 Z M 14.875 -21.796875 L 14.875 -24.609375 L 15.1875 -24.609375 C 16.175781 -24.609375 17.140625 -24.472656 18.078125 -24.203125 C 19.023438 -23.941406 19.914062 -23.578125 20.75 -23.109375 C 21.59375 -22.648438 22.378906 -22.085938 23.109375 -21.421875 C 23.847656 -20.765625 24.476562 -20.03125 25 -19.21875 C 26.25 -17.320312 27.03125 -15.203125 27.34375 -12.859375 C 27.382812 -12.671875 27.410156 -12.390625 27.421875 -12.015625 C 27.429688 -11.640625 27.4375 -11.210938 27.4375 -10.734375 C 27.394531 -9.347656 27.226562 -7.984375 26.9375 -6.640625 C 26.65625 -5.304688 26.140625 -4.023438 25.390625 -2.796875 C 24.390625 -1.117188 23.113281 0.207031 21.5625 1.1875 C 20.019531 2.164062 18.242188 2.773438 16.234375 3.015625 C 16.046875 3.035156 15.878906 3.050781 15.734375 3.0625 C 15.585938 3.082031 15.46875 3.09375 15.375 3.09375 L 15.09375 3.09375 L 15.046875 1.6875 C 15.023438 0.800781 15.023438 -0.0820312 15.046875 -0.96875 L 15.09375 -2.265625 L 15.546875 -2.375 C 16.441406 -2.632812 17.160156 -3.039062 17.703125 -3.59375 C 18.253906 -4.144531 18.679688 -4.78125 18.984375 -5.5 C 19.285156 -6.21875 19.492188 -6.988281 19.609375 -7.8125 C 19.734375 -8.632812 19.804688 -9.46875 19.828125 -10.3125 C 19.898438 -12.101562 19.695312 -13.726562 19.21875 -15.1875 C 18.476562 -17.46875 17.234375 -18.738281 15.484375 -19 L 14.90625 -19.109375 Z M 14.875 -21.796875 "/></g></g></g><g fill="#ff00ff" fill-opacity="1"><g transform="translate(270.354847, 55.777458)"><g><path d="M 2.125 -24.21875 C 2.09375 -24.21875 2.113281 -24.226562 2.1875 -24.25 C 2.3125 -24.269531 2.675781 -24.28125 3.28125 -24.28125 C 3.894531 -24.28125 4.765625 -24.28125 5.890625 -24.28125 L 9.921875 -24.28125 L 9.921875 2.734375 L 2.625 2.734375 L 2.625 -23.671875 L 2.484375 -23.890625 C 2.335938 -24.035156 2.21875 -24.144531 2.125 -24.21875 Z M 12.53125 -24.46875 C 12.769531 -24.488281 13.050781 -24.503906 13.375 -24.515625 C 13.695312 -24.523438 14.078125 -24.519531 14.515625 -24.5 C 15.515625 -24.445312 16.429688 -24.335938 17.265625 -24.171875 C 18.109375 -24.003906 18.890625 -23.738281 19.609375 -23.375 C 20.328125 -23.019531 20.988281 -22.5625 21.59375 -22 C 22.207031 -21.4375 22.804688 -20.722656 23.390625 -19.859375 C 24.460938 -18.210938 25.203125 -16.332031 25.609375 -14.21875 C 25.972656 -12.300781 26.070312 -10.445312 25.90625 -8.65625 C 25.726562 -6.957031 25.316406 -5.398438 24.671875 -3.984375 C 24.023438 -2.578125 23.175781 -1.359375 22.125 -0.328125 C 21.070312 0.703125 19.832031 1.5 18.40625 2.0625 C 16.976562 2.625 15.394531 2.90625 13.65625 2.90625 C 13.125 2.90625 12.640625 2.875 12.203125 2.8125 C 11.773438 2.757812 11.367188 2.671875 10.984375 2.546875 C 10.890625 2.523438 10.84375 1.675781 10.84375 0 L 10.84375 -2.515625 L 12 -2.515625 C 13.195312 -2.515625 14.203125 -2.691406 15.015625 -3.046875 C 15.828125 -3.410156 16.484375 -3.921875 16.984375 -4.578125 C 17.492188 -5.234375 17.859375 -6.03125 18.078125 -6.96875 C 18.304688 -7.90625 18.445312 -8.957031 18.5 -10.125 C 18.550781 -11.007812 18.53125 -11.972656 18.4375 -13.015625 C 18.351562 -14.054688 18.160156 -15 17.859375 -15.84375 C 17.640625 -16.46875 17.332031 -16.984375 16.9375 -17.390625 C 16.539062 -17.796875 16.097656 -18.125 15.609375 -18.375 C 15.117188 -18.625 14.59375 -18.804688 14.03125 -18.921875 C 13.46875 -19.046875 12.882812 -19.117188 12.28125 -19.140625 L 10.84375 -19.1875 L 10.84375 -24.140625 L 11.421875 -24.28125 C 11.847656 -24.40625 12.21875 -24.46875 12.53125 -24.46875 Z M 12.53125 -24.46875 "/></g></g></g><g fill="#ff00ff" fill-opacity="1"><g transform="translate(297.97541, 55.777458)"><g><path d="M 2.046875 -24.21875 C 2.691406 -24.21875 3.804688 -24.226562 5.390625 -24.25 C 6.753906 -24.25 8.695312 -24.253906 11.21875 -24.265625 C 13.75 -24.273438 17.085938 -24.28125 21.234375 -24.28125 L 21.234375 -18.71875 L 9.875 -18.71875 L 9.875 -2.84375 L 22.265625 -2.84375 L 22.265625 -2.65625 C 22.265625 -2.675781 22.242188 -2.609375 22.203125 -2.453125 C 22.171875 -2.304688 22.125 -2.097656 22.0625 -1.828125 C 22.007812 -1.566406 21.953125 -1.273438 21.890625 -0.953125 C 21.828125 -0.628906 21.765625 -0.3125 21.703125 0 C 21.335938 1.695312 21.144531 2.570312 21.125 2.625 C 21.101562 2.695312 18.035156 2.734375 11.921875 2.734375 L 2.796875 2.734375 L 2.796875 -10.3125 C 2.796875 -14.695312 2.789062 -17.945312 2.78125 -20.0625 C 2.769531 -22.175781 2.738281 -23.320312 2.6875 -23.5 C 2.625 -23.851562 2.410156 -24.09375 2.046875 -24.21875 Z M 11.0625 -13.71875 L 20.65625 -13.71875 L 20.65625 -8.21875 L 11.0625 -8.21875 Z M 11.0625 -13.71875 "/></g></g></g><g fill="#00ffff" fill-opacity="1"><g transform="translate(108.313033, 55.777458)"><g><path d="M 2.078125 -24.171875 C 2.035156 -24.203125 2.070312 -24.226562 2.1875 -24.25 C 2.3125 -24.269531 2.664062 -24.28125 3.25 -24.28125 C 3.832031 -24.28125 4.675781 -24.28125 5.78125 -24.28125 L 9.65625 -24.28125 L 9.65625 2.734375 L 2.625 2.734375 L 2.625 -23.640625 L 2.4375 -23.859375 C 2.363281 -23.992188 2.242188 -24.097656 2.078125 -24.171875 Z M 10.640625 -24.28125 L 13.578125 -24.28125 C 14.367188 -24.28125 15.019531 -24.28125 15.53125 -24.28125 C 16.050781 -24.28125 16.441406 -24.269531 16.703125 -24.25 C 17.773438 -24.175781 18.773438 -23.84375 19.703125 -23.25 C 20.628906 -22.664062 21.378906 -21.929688 21.953125 -21.046875 C 22.804688 -19.734375 23.210938 -18.320312 23.171875 -16.8125 C 23.148438 -16.238281 23.078125 -15.75 22.953125 -15.34375 C 22.660156 -14.476562 22.15625 -13.722656 21.4375 -13.078125 C 20.726562 -12.429688 19.914062 -12.046875 19 -11.921875 C 18.613281 -11.847656 18.410156 -11.800781 18.390625 -11.78125 C 18.390625 -11.726562 18.5 -11.703125 18.71875 -11.703125 C 19.507812 -11.703125 20.210938 -11.554688 20.828125 -11.265625 C 21.453125 -10.984375 21.984375 -10.597656 22.421875 -10.109375 C 22.867188 -9.617188 23.226562 -9.050781 23.5 -8.40625 C 23.78125 -7.757812 23.957031 -7.066406 24.03125 -6.328125 C 24.15625 -4.859375 23.890625 -3.492188 23.234375 -2.234375 C 22.734375 -1.148438 22.035156 -0.226562 21.140625 0.53125 C 20.242188 1.300781 19.242188 1.878906 18.140625 2.265625 C 17.847656 2.378906 17.570312 2.46875 17.3125 2.53125 C 17.050781 2.59375 16.8125 2.632812 16.59375 2.65625 C 16.351562 2.675781 15.984375 2.6875 15.484375 2.6875 C 14.984375 2.6875 14.320312 2.6875 13.5 2.6875 L 10.640625 2.734375 L 10.640625 -2.234375 L 12.390625 -2.234375 C 12.867188 -2.234375 13.257812 -2.238281 13.5625 -2.25 C 13.863281 -2.257812 14.097656 -2.273438 14.265625 -2.296875 C 14.523438 -2.316406 14.832031 -2.414062 15.1875 -2.59375 C 15.40625 -2.726562 15.628906 -2.921875 15.859375 -3.171875 C 16.085938 -3.429688 16.25 -3.679688 16.34375 -3.921875 C 16.582031 -4.421875 16.6875 -5.003906 16.65625 -5.671875 C 16.632812 -6.347656 16.503906 -6.925781 16.265625 -7.40625 C 16.148438 -7.613281 15.976562 -7.828125 15.75 -8.046875 C 15.519531 -8.265625 15.3125 -8.421875 15.125 -8.515625 C 14.789062 -8.703125 14.488281 -8.8125 14.21875 -8.84375 C 14.082031 -8.863281 13.863281 -8.875 13.5625 -8.875 C 13.257812 -8.875 12.867188 -8.875 12.390625 -8.875 L 10.640625 -8.875 L 10.640625 -14.15625 L 12.0625 -14.15625 C 12.519531 -14.15625 12.890625 -14.15625 13.171875 -14.15625 C 13.460938 -14.15625 13.671875 -14.164062 13.796875 -14.1875 C 14.515625 -14.351562 15.070312 -14.722656 15.46875 -15.296875 C 15.863281 -15.878906 16 -16.539062 15.875 -17.28125 C 15.757812 -17.832031 15.570312 -18.253906 15.3125 -18.546875 C 15.0625 -18.847656 14.769531 -19.070312 14.4375 -19.21875 C 14.101562 -19.363281 13.734375 -19.445312 13.328125 -19.46875 C 12.921875 -19.488281 12.488281 -19.5 12.03125 -19.5 L 10.640625 -19.5 Z M 10.640625 -24.28125 "/></g></g></g><g fill="#00ffff" fill-opacity="1"><g transform="translate(133.814455, 55.777458)"><g><path d="M 2.046875 -24.21875 C 2.691406 -24.21875 3.804688 -24.226562 5.390625 -24.25 C 6.753906 -24.25 8.695312 -24.253906 11.21875 -24.265625 C 13.75 -24.273438 17.085938 -24.28125 21.234375 -24.28125 L 21.234375 -18.71875 L 9.875 -18.71875 L 9.875 -2.84375 L 22.265625 -2.84375 L 22.265625 -2.65625 C 22.265625 -2.675781 22.242188 -2.609375 22.203125 -2.453125 C 22.171875 -2.304688 22.125 -2.097656 22.0625 -1.828125 C 22.007812 -1.566406 21.953125 -1.273438 21.890625 -0.953125 C 21.828125 -0.628906 21.765625 -0.3125 21.703125 0 C 21.335938 1.695312 21.144531 2.570312 21.125 2.625 C 21.101562 2.695312 18.035156 2.734375 11.921875 2.734375 L 2.796875 2.734375 L 2.796875 -10.3125 C 2.796875 -14.695312 2.789062 -17.945312 2.78125 -20.0625 C 2.769531 -22.175781 2.738281 -23.320312 2.6875 -23.5 C 2.625 -23.851562 2.410156 -24.09375 2.046875 -24.21875 Z M 11.0625 -13.71875 L 20.65625 -13.71875 L 20.65625 -8.21875 L 11.0625 -8.21875 Z M 11.0625 -13.71875 "/></g></g></g><g fill="#00ffff" fill-opacity="1"><g transform="translate(157.304498, 55.777458)"><g><path d="M 0.71875 -24.28125 L 21.875 -24.28125 L 21.875 -18.78125 L 0.71875 -18.78125 Z M 7.40625 -17.53125 L 7.21875 -17.703125 L 14.984375 -17.703125 L 14.984375 2.734375 L 7.71875 2.734375 L 7.71875 -7.046875 C 7.71875 -10.390625 7.71875 -12.90625 7.71875 -14.59375 C 7.71875 -16.289062 7.707031 -17.160156 7.6875 -17.203125 C 7.664062 -17.296875 7.570312 -17.40625 7.40625 -17.53125 Z M 7.40625 -17.53125 "/></g></g></g><g fill="#00ffff" fill-opacity="1"><g transform="translate(179.896607, 55.777458)"><g><path d="M 7.25 -24.171875 C 7.1875 -24.203125 7.210938 -24.226562 7.328125 -24.25 C 7.492188 -24.269531 8 -24.28125 8.84375 -24.28125 C 9.695312 -24.28125 10.832031 -24.28125 12.25 -24.28125 L 17.640625 -24.28125 L 17.890625 -23.5625 C 18.003906 -23.0625 18.21875 -22.304688 18.53125 -21.296875 C 18.726562 -20.679688 18.882812 -20.15625 19 -19.71875 C 19.125 -19.289062 19.207031 -18.957031 19.25 -18.71875 C 19.28125 -18.570312 19.460938 -17.945312 19.796875 -16.84375 C 20.128906 -15.769531 20.378906 -14.910156 20.546875 -14.265625 C 20.804688 -13.378906 21.054688 -12.515625 21.296875 -11.671875 C 21.535156 -10.835938 21.773438 -10.035156 22.015625 -9.265625 C 22.066406 -9.097656 22.128906 -8.890625 22.203125 -8.640625 C 22.273438 -8.390625 22.367188 -8.097656 22.484375 -7.765625 C 22.578125 -7.421875 22.648438 -7.144531 22.703125 -6.9375 C 22.753906 -6.738281 22.789062 -6.601562 22.8125 -6.53125 C 22.832031 -6.488281 22.859375 -6.382812 22.890625 -6.21875 C 22.929688 -6.050781 23 -5.832031 23.09375 -5.5625 C 23.289062 -5.007812 23.398438 -4.628906 23.421875 -4.421875 C 23.441406 -4.347656 23.472656 -4.210938 23.515625 -4.015625 C 23.566406 -3.828125 23.625 -3.628906 23.6875 -3.421875 C 23.75 -3.222656 23.804688 -3.039062 23.859375 -2.875 C 23.921875 -2.707031 23.953125 -2.597656 23.953125 -2.546875 C 23.984375 -2.523438 24.070312 -2.25 24.21875 -1.71875 C 24.238281 -1.625 24.289062 -1.425781 24.375 -1.125 C 24.457031 -0.832031 24.546875 -0.535156 24.640625 -0.234375 C 24.734375 0.0664062 24.816406 0.34375 24.890625 0.59375 C 24.960938 0.84375 25.007812 0.976562 25.03125 1 C 25.03125 1.101562 25.066406 1.273438 25.140625 1.515625 C 25.210938 1.753906 25.273438 1.90625 25.328125 1.96875 C 25.347656 2.113281 25.367188 2.238281 25.390625 2.34375 C 25.421875 2.457031 25.445312 2.550781 25.46875 2.625 C 25.488281 2.644531 25.453125 2.664062 25.359375 2.6875 C 25.265625 2.71875 24.9375 2.734375 24.375 2.734375 C 23.8125 2.734375 23.0625 2.734375 22.125 2.734375 L 18.421875 2.734375 L 18.28125 2.296875 C 18.238281 2.179688 18.191406 2.03125 18.140625 1.84375 C 18.085938 1.664062 18.039062 1.457031 18 1.21875 C 18 1.175781 17.972656 1.066406 17.921875 0.890625 C 17.878906 0.722656 17.820312 0.507812 17.75 0.25 C 17.65625 -0.0078125 17.578125 -0.253906 17.515625 -0.484375 C 17.453125 -0.710938 17.394531 -0.921875 17.34375 -1.109375 L 16.921875 -2.84375 L 8.796875 -2.84375 L 8.734375 -2.59375 C 8.515625 -1.820312 8.3125 -1.085938 8.125 -0.390625 C 7.945312 0.296875 7.789062 0.941406 7.65625 1.546875 L 7.328125 2.734375 L 3.65625 2.734375 C 2.707031 2.703125 1.945312 2.679688 1.375 2.671875 C 0.8125 2.660156 0.53125 2.644531 0.53125 2.625 C 1.226562 0.445312 1.890625 -1.734375 2.515625 -3.921875 C 3.140625 -6.117188 3.75 -8.332031 4.34375 -10.5625 C 4.34375 -10.613281 4.390625 -10.800781 4.484375 -11.125 C 4.585938 -11.445312 4.660156 -11.703125 4.703125 -11.890625 C 4.828125 -12.242188 4.9375 -12.597656 5.03125 -12.953125 C 5.125 -13.316406 5.21875 -13.691406 5.3125 -14.078125 C 5.40625 -14.410156 5.503906 -14.78125 5.609375 -15.1875 C 5.722656 -15.601562 5.851562 -16.050781 6 -16.53125 C 6.019531 -16.59375 6.050781 -16.726562 6.09375 -16.9375 C 6.144531 -17.144531 6.203125 -17.359375 6.265625 -17.578125 C 6.328125 -17.804688 6.382812 -18.019531 6.4375 -18.21875 C 6.5 -18.425781 6.53125 -18.554688 6.53125 -18.609375 C 6.582031 -18.722656 6.628906 -18.863281 6.671875 -19.03125 C 6.722656 -19.207031 6.785156 -19.414062 6.859375 -19.65625 C 6.984375 -20.132812 7.054688 -20.40625 7.078125 -20.46875 C 7.128906 -20.59375 7.179688 -20.796875 7.234375 -21.078125 C 7.296875 -21.367188 7.382812 -21.726562 7.5 -22.15625 C 7.695312 -22.738281 7.796875 -23.097656 7.796875 -23.234375 C 7.796875 -23.671875 7.613281 -23.984375 7.25 -24.171875 Z M 13.328125 -16.453125 C 13.035156 -17.597656 12.867188 -18.171875 12.828125 -18.171875 C 12.773438 -18.023438 12.664062 -17.570312 12.5 -16.8125 C 12.445312 -16.625 12.382812 -16.363281 12.3125 -16.03125 C 12.25 -15.707031 12.15625 -15.304688 12.03125 -14.828125 C 11.988281 -14.691406 11.90625 -14.359375 11.78125 -13.828125 C 11.664062 -13.304688 11.535156 -12.753906 11.390625 -12.171875 C 11.191406 -11.503906 11 -10.773438 10.8125 -9.984375 C 10.570312 -9.023438 10.453125 -8.507812 10.453125 -8.4375 C 10.453125 -8.394531 11.28125 -8.375 12.9375 -8.375 L 15.40625 -8.375 L 15.34375 -8.734375 C 15.144531 -9.492188 14.878906 -10.515625 14.546875 -11.796875 C 14.210938 -13.078125 13.804688 -14.628906 13.328125 -16.453125 Z M 13.328125 -16.453125 "/></g></g></g><g fill="#00ffff" fill-opacity="1"><g transform="translate(205.936791, 55.777458)"><g/></g></g><g fill="#00ffff" fill-opacity="1"><g transform="translate(213.120293, 55.777458)"><g><path d="M 14.265625 -24.5 L 14.828125 -24.5 C 16.003906 -24.5 17.144531 -24.335938 18.25 -24.015625 C 19.351562 -23.691406 20.359375 -23.21875 21.265625 -22.59375 C 22.171875 -21.96875 22.957031 -21.203125 23.625 -20.296875 C 24.300781 -19.390625 24.796875 -18.347656 25.109375 -17.171875 C 25.203125 -16.765625 25.269531 -16.421875 25.3125 -16.140625 C 25.363281 -15.867188 25.390625 -15.648438 25.390625 -15.484375 L 25.390625 -15.265625 L 18.28125 -15.265625 L 18.140625 -15.625 C 17.992188 -16.101562 17.769531 -16.59375 17.46875 -17.09375 C 17.175781 -17.601562 16.863281 -17.960938 16.53125 -18.171875 C 16.019531 -18.609375 15.332031 -18.875 14.46875 -18.96875 L 14.265625 -19 Z M 12.640625 -24.46875 C 12.691406 -24.488281 12.835938 -24.5 13.078125 -24.5 L 13.328125 -24.5 L 13.328125 -19.109375 L 12.96875 -18.96875 C 12.269531 -18.707031 11.644531 -18.222656 11.09375 -17.515625 C 10.550781 -16.804688 10.109375 -15.910156 9.765625 -14.828125 C 9.578125 -14.234375 9.445312 -13.546875 9.375 -12.765625 C 9.300781 -11.992188 9.289062 -11.148438 9.34375 -10.234375 C 9.363281 -9.660156 9.421875 -9.003906 9.515625 -8.265625 C 9.609375 -7.523438 9.765625 -6.800781 9.984375 -6.09375 C 10.203125 -5.382812 10.492188 -4.734375 10.859375 -4.140625 C 11.234375 -3.554688 11.722656 -3.125 12.328125 -2.84375 C 12.441406 -2.789062 12.5625 -2.742188 12.6875 -2.703125 C 12.820312 -2.671875 12.953125 -2.632812 13.078125 -2.59375 L 13.40625 -2.515625 L 13.40625 2.953125 L 12.828125 2.90625 C 9.566406 2.71875 7.015625 1.707031 5.171875 -0.125 C 3.328125 -1.957031 2.191406 -4.414062 1.765625 -7.5 C 1.734375 -7.738281 1.707031 -8.035156 1.6875 -8.390625 C 1.664062 -8.753906 1.65625 -9.203125 1.65625 -9.734375 C 1.601562 -10.804688 1.601562 -11.617188 1.65625 -12.171875 C 1.96875 -15.484375 3.054688 -18.222656 4.921875 -20.390625 C 6.785156 -22.554688 9.359375 -23.914062 12.640625 -24.46875 Z M 18.171875 -6.109375 L 18.28125 -6.359375 L 21.953125 -6.359375 C 24.367188 -6.410156 25.578125 -6.398438 25.578125 -6.328125 C 25.578125 -6.273438 25.539062 -6.007812 25.46875 -5.53125 C 25.226562 -4.1875 24.800781 -2.992188 24.1875 -1.953125 C 23.582031 -0.910156 22.820312 -0.03125 21.90625 0.6875 C 21 1.40625 19.960938 1.953125 18.796875 2.328125 C 17.640625 2.710938 16.390625 2.921875 15.046875 2.953125 L 14.265625 2.984375 L 14.265625 -2.40625 L 14.546875 -2.4375 C 15.484375 -2.5625 16.238281 -2.882812 16.8125 -3.40625 C 17.457031 -4.082031 17.910156 -4.984375 18.171875 -6.109375 Z M 18.171875 -6.109375 "/></g></g></g><g fill="#00ffff" fill-opacity="1"><g transform="translate(239.950672, 55.777458)"><g><path d="M 13.109375 -24.5 C 13.304688 -24.550781 13.472656 -24.578125 13.609375 -24.578125 C 13.710938 -24.578125 13.8125 -24.578125 13.90625 -24.578125 L 14.046875 -24.609375 L 14.046875 -21.796875 C 14.046875 -19.910156 14.007812 -18.96875 13.9375 -18.96875 C 13.550781 -18.96875 13 -18.800781 12.28125 -18.46875 C 10.15625 -17.457031 9.148438 -14.773438 9.265625 -10.421875 C 9.285156 -9.703125 9.363281 -8.898438 9.5 -8.015625 C 9.632812 -7.128906 9.867188 -6.273438 10.203125 -5.453125 C 10.535156 -4.640625 10.988281 -3.929688 11.5625 -3.328125 C 12.132812 -2.734375 12.867188 -2.378906 13.765625 -2.265625 L 14.015625 -2.234375 L 14.046875 0.4375 L 14.046875 3.125 L 13.6875 3.125 C 12.75 3.125 11.8125 3.007812 10.875 2.78125 C 9.945312 2.550781 9.0625 2.226562 8.21875 1.8125 C 7.382812 1.394531 6.609375 0.875 5.890625 0.25 C 5.171875 -0.375 4.546875 -1.082031 4.015625 -1.875 C 2.796875 -3.664062 2.007812 -5.925781 1.65625 -8.65625 C 1.625 -8.875 1.609375 -9.171875 1.609375 -9.546875 C 1.609375 -9.929688 1.609375 -10.398438 1.609375 -10.953125 C 1.609375 -11.484375 1.613281 -11.9375 1.625 -12.3125 C 1.644531 -12.695312 1.664062 -13.007812 1.6875 -13.25 C 1.851562 -14.40625 2.140625 -15.523438 2.546875 -16.609375 C 2.953125 -17.703125 3.484375 -18.710938 4.140625 -19.640625 C 4.804688 -20.578125 5.585938 -21.398438 6.484375 -22.109375 C 7.378906 -22.816406 8.40625 -23.363281 9.5625 -23.75 C 10.613281 -24.175781 11.796875 -24.425781 13.109375 -24.5 Z M 14.875 -21.796875 L 14.875 -24.609375 L 15.1875 -24.609375 C 16.175781 -24.609375 17.140625 -24.472656 18.078125 -24.203125 C 19.023438 -23.941406 19.914062 -23.578125 20.75 -23.109375 C 21.59375 -22.648438 22.378906 -22.085938 23.109375 -21.421875 C 23.847656 -20.765625 24.476562 -20.03125 25 -19.21875 C 26.25 -17.320312 27.03125 -15.203125 27.34375 -12.859375 C 27.382812 -12.671875 27.410156 -12.390625 27.421875 -12.015625 C 27.429688 -11.640625 27.4375 -11.210938 27.4375 -10.734375 C 27.394531 -9.347656 27.226562 -7.984375 26.9375 -6.640625 C 26.65625 -5.304688 26.140625 -4.023438 25.390625 -2.796875 C 24.390625 -1.117188 23.113281 0.207031 21.5625 1.1875 C 20.019531 2.164062 18.242188 2.773438 16.234375 3.015625 C 16.046875 3.035156 15.878906 3.050781 15.734375 3.0625 C 15.585938 3.082031 15.46875 3.09375 15.375 3.09375 L 15.09375 3.09375 L 15.046875 1.6875 C 15.023438 0.800781 15.023438 -0.0820312 15.046875 -0.96875 L 15.09375 -2.265625 L 15.546875 -2.375 C 16.441406 -2.632812 17.160156 -3.039062 17.703125 -3.59375 C 18.253906 -4.144531 18.679688 -4.78125 18.984375 -5.5 C 19.285156 -6.21875 19.492188 -6.988281 19.609375 -7.8125 C 19.734375 -8.632812 19.804688 -9.46875 19.828125 -10.3125 C 19.898438 -12.101562 19.695312 -13.726562 19.21875 -15.1875 C 18.476562 -17.46875 17.234375 -18.738281 15.484375 -19 L 14.90625 -19.109375 Z M 14.875 -21.796875 "/></g></g></g><g fill="#00ffff" fill-opacity="1"><g transform="translate(269.00793, 55.777458)"><g><path d="M 2.125 -24.21875 C 2.09375 -24.21875 2.113281 -24.226562 2.1875 -24.25 C 2.3125 -24.269531 2.675781 -24.28125 3.28125 -24.28125 C 3.894531 -24.28125 4.765625 -24.28125 5.890625 -24.28125 L 9.921875 -24.28125 L 9.921875 2.734375 L 2.625 2.734375 L 2.625 -23.671875 L 2.484375 -23.890625 C 2.335938 -24.035156 2.21875 -24.144531 2.125 -24.21875 Z M 12.53125 -24.46875 C 12.769531 -24.488281 13.050781 -24.503906 13.375 -24.515625 C 13.695312 -24.523438 14.078125 -24.519531 14.515625 -24.5 C 15.515625 -24.445312 16.429688 -24.335938 17.265625 -24.171875 C 18.109375 -24.003906 18.890625 -23.738281 19.609375 -23.375 C 20.328125 -23.019531 20.988281 -22.5625 21.59375 -22 C 22.207031 -21.4375 22.804688 -20.722656 23.390625 -19.859375 C 24.460938 -18.210938 25.203125 -16.332031 25.609375 -14.21875 C 25.972656 -12.300781 26.070312 -10.445312 25.90625 -8.65625 C 25.726562 -6.957031 25.316406 -5.398438 24.671875 -3.984375 C 24.023438 -2.578125 23.175781 -1.359375 22.125 -0.328125 C 21.070312 0.703125 19.832031 1.5 18.40625 2.0625 C 16.976562 2.625 15.394531 2.90625 13.65625 2.90625 C 13.125 2.90625 12.640625 2.875 12.203125 2.8125 C 11.773438 2.757812 11.367188 2.671875 10.984375 2.546875 C 10.890625 2.523438 10.84375 1.675781 10.84375 0 L 10.84375 -2.515625 L 12 -2.515625 C 13.195312 -2.515625 14.203125 -2.691406 15.015625 -3.046875 C 15.828125 -3.410156 16.484375 -3.921875 16.984375 -4.578125 C 17.492188 -5.234375 17.859375 -6.03125 18.078125 -6.96875 C 18.304688 -7.90625 18.445312 -8.957031 18.5 -10.125 C 18.550781 -11.007812 18.53125 -11.972656 18.4375 -13.015625 C 18.351562 -14.054688 18.160156 -15 17.859375 -15.84375 C 17.640625 -16.46875 17.332031 -16.984375 16.9375 -17.390625 C 16.539062 -17.796875 16.097656 -18.125 15.609375 -18.375 C 15.117188 -18.625 14.59375 -18.804688 14.03125 -18.921875 C 13.46875 -19.046875 12.882812 -19.117188 12.28125 -19.140625 L 10.84375 -19.1875 L 10.84375 -24.140625 L 11.421875 -24.28125 C 11.847656 -24.40625 12.21875 -24.46875 12.53125 -24.46875 Z M 12.53125 -24.46875 "/></g></g></g><g fill="#00ffff" fill-opacity="1"><g transform="translate(296.628492, 55.777458)"><g><path d="M 2.046875 -24.21875 C 2.691406 -24.21875 3.804688 -24.226562 5.390625 -24.25 C 6.753906 -24.25 8.695312 -24.253906 11.21875 -24.265625 C 13.75 -24.273438 17.085938 -24.28125 21.234375 -24.28125 L 21.234375 -18.71875 L 9.875 -18.71875 L 9.875 -2.84375 L 22.265625 -2.84375 L 22.265625 -2.65625 C 22.265625 -2.675781 22.242188 -2.609375 22.203125 -2.453125 C 22.171875 -2.304688 22.125 -2.097656 22.0625 -1.828125 C 22.007812 -1.566406 21.953125 -1.273438 21.890625 -0.953125 C 21.828125 -0.628906 21.765625 -0.3125 21.703125 0 C 21.335938 1.695312 21.144531 2.570312 21.125 2.625 C 21.101562 2.695312 18.035156 2.734375 11.921875 2.734375 L 2.796875 2.734375 L 2.796875 -10.3125 C 2.796875 -14.695312 2.789062 -17.945312 2.78125 -20.0625 C 2.769531 -22.175781 2.738281 -23.320312 2.6875 -23.5 C 2.625 -23.851562 2.410156 -24.09375 2.046875 -24.21875 Z M 11.0625 -13.71875 L 20.65625 -13.71875 L 20.65625 -8.21875 L 11.0625 -8.21875 Z M 11.0625 -13.71875 "/></g></g></g><g fill="#970c10" fill-opacity="1"><g transform="translate(108.986492, 55.777458)"><g><path d="M 2.078125 -24.171875 C 2.035156 -24.203125 2.070312 -24.226562 2.1875 -24.25 C 2.3125 -24.269531 2.664062 -24.28125 3.25 -24.28125 C 3.832031 -24.28125 4.675781 -24.28125 5.78125 -24.28125 L 9.65625 -24.28125 L 9.65625 2.734375 L 2.625 2.734375 L 2.625 -23.640625 L 2.4375 -23.859375 C 2.363281 -23.992188 2.242188 -24.097656 2.078125 -24.171875 Z M 10.640625 -24.28125 L 13.578125 -24.28125 C 14.367188 -24.28125 15.019531 -24.28125 15.53125 -24.28125 C 16.050781 -24.28125 16.441406 -24.269531 16.703125 -24.25 C 17.773438 -24.175781 18.773438 -23.84375 19.703125 -23.25 C 20.628906 -22.664062 21.378906 -21.929688 21.953125 -21.046875 C 22.804688 -19.734375 23.210938 -18.320312 23.171875 -16.8125 C 23.148438 -16.238281 23.078125 -15.75 22.953125 -15.34375 C 22.660156 -14.476562 22.15625 -13.722656 21.4375 -13.078125 C 20.726562 -12.429688 19.914062 -12.046875 19 -11.921875 C 18.613281 -11.847656 18.410156 -11.800781 18.390625 -11.78125 C 18.390625 -11.726562 18.5 -11.703125 18.71875 -11.703125 C 19.507812 -11.703125 20.210938 -11.554688 20.828125 -11.265625 C 21.453125 -10.984375 21.984375 -10.597656 22.421875 -10.109375 C 22.867188 -9.617188 23.226562 -9.050781 23.5 -8.40625 C 23.78125 -7.757812 23.957031 -7.066406 24.03125 -6.328125 C 24.15625 -4.859375 23.890625 -3.492188 23.234375 -2.234375 C 22.734375 -1.148438 22.035156 -0.226562 21.140625 0.53125 C 20.242188 1.300781 19.242188 1.878906 18.140625 2.265625 C 17.847656 2.378906 17.570312 2.46875 17.3125 2.53125 C 17.050781 2.59375 16.8125 2.632812 16.59375 2.65625 C 16.351562 2.675781 15.984375 2.6875 15.484375 2.6875 C 14.984375 2.6875 14.320312 2.6875 13.5 2.6875 L 10.640625 2.734375 L 10.640625 -2.234375 L 12.390625 -2.234375 C 12.867188 -2.234375 13.257812 -2.238281 13.5625 -2.25 C 13.863281 -2.257812 14.097656 -2.273438 14.265625 -2.296875 C 14.523438 -2.316406 14.832031 -2.414062 15.1875 -2.59375 C 15.40625 -2.726562 15.628906 -2.921875 15.859375 -3.171875 C 16.085938 -3.429688 16.25 -3.679688 16.34375 -3.921875 C 16.582031 -4.421875 16.6875 -5.003906 16.65625 -5.671875 C 16.632812 -6.347656 16.503906 -6.925781 16.265625 -7.40625 C 16.148438 -7.613281 15.976562 -7.828125 15.75 -8.046875 C 15.519531 -8.265625 15.3125 -8.421875 15.125 -8.515625 C 14.789062 -8.703125 14.488281 -8.8125 14.21875 -8.84375 C 14.082031 -8.863281 13.863281 -8.875 13.5625 -8.875 C 13.257812 -8.875 12.867188 -8.875 12.390625 -8.875 L 10.640625 -8.875 L 10.640625 -14.15625 L 12.0625 -14.15625 C 12.519531 -14.15625 12.890625 -14.15625 13.171875 -14.15625 C 13.460938 -14.15625 13.671875 -14.164062 13.796875 -14.1875 C 14.515625 -14.351562 15.070312 -14.722656 15.46875 -15.296875 C 15.863281 -15.878906 16 -16.539062 15.875 -17.28125 C 15.757812 -17.832031 15.570312 -18.253906 15.3125 -18.546875 C 15.0625 -18.847656 14.769531 -19.070312 14.4375 -19.21875 C 14.101562 -19.363281 13.734375 -19.445312 13.328125 -19.46875 C 12.921875 -19.488281 12.488281 -19.5 12.03125 -19.5 L 10.640625 -19.5 Z M 10.640625 -24.28125 "/></g></g></g><g fill="#970c10" fill-opacity="1"><g transform="translate(134.487914, 55.777458)"><g><path d="M 2.046875 -24.21875 C 2.691406 -24.21875 3.804688 -24.226562 5.390625 -24.25 C 6.753906 -24.25 8.695312 -24.253906 11.21875 -24.265625 C 13.75 -24.273438 17.085938 -24.28125 21.234375 -24.28125 L 21.234375 -18.71875 L 9.875 -18.71875 L 9.875 -2.84375 L 22.265625 -2.84375 L 22.265625 -2.65625 C 22.265625 -2.675781 22.242188 -2.609375 22.203125 -2.453125 C 22.171875 -2.304688 22.125 -2.097656 22.0625 -1.828125 C 22.007812 -1.566406 21.953125 -1.273438 21.890625 -0.953125 C 21.828125 -0.628906 21.765625 -0.3125 21.703125 0 C 21.335938 1.695312 21.144531 2.570312 21.125 2.625 C 21.101562 2.695312 18.035156 2.734375 11.921875 2.734375 L 2.796875 2.734375 L 2.796875 -10.3125 C 2.796875 -14.695312 2.789062 -17.945312 2.78125 -20.0625 C 2.769531 -22.175781 2.738281 -23.320312 2.6875 -23.5 C 2.625 -23.851562 2.410156 -24.09375 2.046875 -24.21875 Z M 11.0625 -13.71875 L 20.65625 -13.71875 L 20.65625 -8.21875 L 11.0625 -8.21875 Z M 11.0625 -13.71875 "/></g></g></g><g fill="#970c10" fill-opacity="1"><g transform="translate(157.977957, 55.777458)"><g><path d="M 0.71875 -24.28125 L 21.875 -24.28125 L 21.875 -18.78125 L 0.71875 -18.78125 Z M 7.40625 -17.53125 L 7.21875 -17.703125 L 14.984375 -17.703125 L 14.984375 2.734375 L 7.71875 2.734375 L 7.71875 -7.046875 C 7.71875 -10.390625 7.71875 -12.90625 7.71875 -14.59375 C 7.71875 -16.289062 7.707031 -17.160156 7.6875 -17.203125 C 7.664062 -17.296875 7.570312 -17.40625 7.40625 -17.53125 Z M 7.40625 -17.53125 "/></g></g></g><g fill="#970c10" fill-opacity="1"><g transform="translate(180.570066, 55.777458)"><g><path d="M 7.25 -24.171875 C 7.1875 -24.203125 7.210938 -24.226562 7.328125 -24.25 C 7.492188 -24.269531 8 -24.28125 8.84375 -24.28125 C 9.695312 -24.28125 10.832031 -24.28125 12.25 -24.28125 L 17.640625 -24.28125 L 17.890625 -23.5625 C 18.003906 -23.0625 18.21875 -22.304688 18.53125 -21.296875 C 18.726562 -20.679688 18.882812 -20.15625 19 -19.71875 C 19.125 -19.289062 19.207031 -18.957031 19.25 -18.71875 C 19.28125 -18.570312 19.460938 -17.945312 19.796875 -16.84375 C 20.128906 -15.769531 20.378906 -14.910156 20.546875 -14.265625 C 20.804688 -13.378906 21.054688 -12.515625 21.296875 -11.671875 C 21.535156 -10.835938 21.773438 -10.035156 22.015625 -9.265625 C 22.066406 -9.097656 22.128906 -8.890625 22.203125 -8.640625 C 22.273438 -8.390625 22.367188 -8.097656 22.484375 -7.765625 C 22.578125 -7.421875 22.648438 -7.144531 22.703125 -6.9375 C 22.753906 -6.738281 22.789062 -6.601562 22.8125 -6.53125 C 22.832031 -6.488281 22.859375 -6.382812 22.890625 -6.21875 C 22.929688 -6.050781 23 -5.832031 23.09375 -5.5625 C 23.289062 -5.007812 23.398438 -4.628906 23.421875 -4.421875 C 23.441406 -4.347656 23.472656 -4.210938 23.515625 -4.015625 C 23.566406 -3.828125 23.625 -3.628906 23.6875 -3.421875 C 23.75 -3.222656 23.804688 -3.039062 23.859375 -2.875 C 23.921875 -2.707031 23.953125 -2.597656 23.953125 -2.546875 C 23.984375 -2.523438 24.070312 -2.25 24.21875 -1.71875 C 24.238281 -1.625 24.289062 -1.425781 24.375 -1.125 C 24.457031 -0.832031 24.546875 -0.535156 24.640625 -0.234375 C 24.734375 0.0664062 24.816406 0.34375 24.890625 0.59375 C 24.960938 0.84375 25.007812 0.976562 25.03125 1 C 25.03125 1.101562 25.066406 1.273438 25.140625 1.515625 C 25.210938 1.753906 25.273438 1.90625 25.328125 1.96875 C 25.347656 2.113281 25.367188 2.238281 25.390625 2.34375 C 25.421875 2.457031 25.445312 2.550781 25.46875 2.625 C 25.488281 2.644531 25.453125 2.664062 25.359375 2.6875 C 25.265625 2.71875 24.9375 2.734375 24.375 2.734375 C 23.8125 2.734375 23.0625 2.734375 22.125 2.734375 L 18.421875 2.734375 L 18.28125 2.296875 C 18.238281 2.179688 18.191406 2.03125 18.140625 1.84375 C 18.085938 1.664062 18.039062 1.457031 18 1.21875 C 18 1.175781 17.972656 1.066406 17.921875 0.890625 C 17.878906 0.722656 17.820312 0.507812 17.75 0.25 C 17.65625 -0.0078125 17.578125 -0.253906 17.515625 -0.484375 C 17.453125 -0.710938 17.394531 -0.921875 17.34375 -1.109375 L 16.921875 -2.84375 L 8.796875 -2.84375 L 8.734375 -2.59375 C 8.515625 -1.820312 8.3125 -1.085938 8.125 -0.390625 C 7.945312 0.296875 7.789062 0.941406 7.65625 1.546875 L 7.328125 2.734375 L 3.65625 2.734375 C 2.707031 2.703125 1.945312 2.679688 1.375 2.671875 C 0.8125 2.660156 0.53125 2.644531 0.53125 2.625 C 1.226562 0.445312 1.890625 -1.734375 2.515625 -3.921875 C 3.140625 -6.117188 3.75 -8.332031 4.34375 -10.5625 C 4.34375 -10.613281 4.390625 -10.800781 4.484375 -11.125 C 4.585938 -11.445312 4.660156 -11.703125 4.703125 -11.890625 C 4.828125 -12.242188 4.9375 -12.597656 5.03125 -12.953125 C 5.125 -13.316406 5.21875 -13.691406 5.3125 -14.078125 C 5.40625 -14.410156 5.503906 -14.78125 5.609375 -15.1875 C 5.722656 -15.601562 5.851562 -16.050781 6 -16.53125 C 6.019531 -16.59375 6.050781 -16.726562 6.09375 -16.9375 C 6.144531 -17.144531 6.203125 -17.359375 6.265625 -17.578125 C 6.328125 -17.804688 6.382812 -18.019531 6.4375 -18.21875 C 6.5 -18.425781 6.53125 -18.554688 6.53125 -18.609375 C 6.582031 -18.722656 6.628906 -18.863281 6.671875 -19.03125 C 6.722656 -19.207031 6.785156 -19.414062 6.859375 -19.65625 C 6.984375 -20.132812 7.054688 -20.40625 7.078125 -20.46875 C 7.128906 -20.59375 7.179688 -20.796875 7.234375 -21.078125 C 7.296875 -21.367188 7.382812 -21.726562 7.5 -22.15625 C 7.695312 -22.738281 7.796875 -23.097656 7.796875 -23.234375 C 7.796875 -23.671875 7.613281 -23.984375 7.25 -24.171875 Z M 13.328125 -16.453125 C 13.035156 -17.597656 12.867188 -18.171875 12.828125 -18.171875 C 12.773438 -18.023438 12.664062 -17.570312 12.5 -16.8125 C 12.445312 -16.625 12.382812 -16.363281 12.3125 -16.03125 C 12.25 -15.707031 12.15625 -15.304688 12.03125 -14.828125 C 11.988281 -14.691406 11.90625 -14.359375 11.78125 -13.828125 C 11.664062 -13.304688 11.535156 -12.753906 11.390625 -12.171875 C 11.191406 -11.503906 11 -10.773438 10.8125 -9.984375 C 10.570312 -9.023438 10.453125 -8.507812 10.453125 -8.4375 C 10.453125 -8.394531 11.28125 -8.375 12.9375 -8.375 L 15.40625 -8.375 L 15.34375 -8.734375 C 15.144531 -9.492188 14.878906 -10.515625 14.546875 -11.796875 C 14.210938 -13.078125 13.804688 -14.628906 13.328125 -16.453125 Z M 13.328125 -16.453125 "/></g></g></g><g fill="#970c10" fill-opacity="1"><g transform="translate(206.61025, 55.777458)"><g/></g></g><g fill="#970c10" fill-opacity="1"><g transform="translate(213.793752, 55.777458)"><g><path d="M 14.265625 -24.5 L 14.828125 -24.5 C 16.003906 -24.5 17.144531 -24.335938 18.25 -24.015625 C 19.351562 -23.691406 20.359375 -23.21875 21.265625 -22.59375 C 22.171875 -21.96875 22.957031 -21.203125 23.625 -20.296875 C 24.300781 -19.390625 24.796875 -18.347656 25.109375 -17.171875 C 25.203125 -16.765625 25.269531 -16.421875 25.3125 -16.140625 C 25.363281 -15.867188 25.390625 -15.648438 25.390625 -15.484375 L 25.390625 -15.265625 L 18.28125 -15.265625 L 18.140625 -15.625 C 17.992188 -16.101562 17.769531 -16.59375 17.46875 -17.09375 C 17.175781 -17.601562 16.863281 -17.960938 16.53125 -18.171875 C 16.019531 -18.609375 15.332031 -18.875 14.46875 -18.96875 L 14.265625 -19 Z M 12.640625 -24.46875 C 12.691406 -24.488281 12.835938 -24.5 13.078125 -24.5 L 13.328125 -24.5 L 13.328125 -19.109375 L 12.96875 -18.96875 C 12.269531 -18.707031 11.644531 -18.222656 11.09375 -17.515625 C 10.550781 -16.804688 10.109375 -15.910156 9.765625 -14.828125 C 9.578125 -14.234375 9.445312 -13.546875 9.375 -12.765625 C 9.300781 -11.992188 9.289062 -11.148438 9.34375 -10.234375 C 9.363281 -9.660156 9.421875 -9.003906 9.515625 -8.265625 C 9.609375 -7.523438 9.765625 -6.800781 9.984375 -6.09375 C 10.203125 -5.382812 10.492188 -4.734375 10.859375 -4.140625 C 11.234375 -3.554688 11.722656 -3.125 12.328125 -2.84375 C 12.441406 -2.789062 12.5625 -2.742188 12.6875 -2.703125 C 12.820312 -2.671875 12.953125 -2.632812 13.078125 -2.59375 L 13.40625 -2.515625 L 13.40625 2.953125 L 12.828125 2.90625 C 9.566406 2.71875 7.015625 1.707031 5.171875 -0.125 C 3.328125 -1.957031 2.191406 -4.414062 1.765625 -7.5 C 1.734375 -7.738281 1.707031 -8.035156 1.6875 -8.390625 C 1.664062 -8.753906 1.65625 -9.203125 1.65625 -9.734375 C 1.601562 -10.804688 1.601562 -11.617188 1.65625 -12.171875 C 1.96875 -15.484375 3.054688 -18.222656 4.921875 -20.390625 C 6.785156 -22.554688 9.359375 -23.914062 12.640625 -24.46875 Z M 18.171875 -6.109375 L 18.28125 -6.359375 L 21.953125 -6.359375 C 24.367188 -6.410156 25.578125 -6.398438 25.578125 -6.328125 C 25.578125 -6.273438 25.539062 -6.007812 25.46875 -5.53125 C 25.226562 -4.1875 24.800781 -2.992188 24.1875 -1.953125 C 23.582031 -0.910156 22.820312 -0.03125 21.90625 0.6875 C 21 1.40625 19.960938 1.953125 18.796875 2.328125 C 17.640625 2.710938 16.390625 2.921875 15.046875 2.953125 L 14.265625 2.984375 L 14.265625 -2.40625 L 14.546875 -2.4375 C 15.484375 -2.5625 16.238281 -2.882812 16.8125 -3.40625 C 17.457031 -4.082031 17.910156 -4.984375 18.171875 -6.109375 Z M 18.171875 -6.109375 "/></g></g></g><g fill="#970c10" fill-opacity="1"><g transform="translate(240.624131, 55.777458)"><g><path d="M 13.109375 -24.5 C 13.304688 -24.550781 13.472656 -24.578125 13.609375 -24.578125 C 13.710938 -24.578125 13.8125 -24.578125 13.90625 -24.578125 L 14.046875 -24.609375 L 14.046875 -21.796875 C 14.046875 -19.910156 14.007812 -18.96875 13.9375 -18.96875 C 13.550781 -18.96875 13 -18.800781 12.28125 -18.46875 C 10.15625 -17.457031 9.148438 -14.773438 9.265625 -10.421875 C 9.285156 -9.703125 9.363281 -8.898438 9.5 -8.015625 C 9.632812 -7.128906 9.867188 -6.273438 10.203125 -5.453125 C 10.535156 -4.640625 10.988281 -3.929688 11.5625 -3.328125 C 12.132812 -2.734375 12.867188 -2.378906 13.765625 -2.265625 L 14.015625 -2.234375 L 14.046875 0.4375 L 14.046875 3.125 L 13.6875 3.125 C 12.75 3.125 11.8125 3.007812 10.875 2.78125 C 9.945312 2.550781 9.0625 2.226562 8.21875 1.8125 C 7.382812 1.394531 6.609375 0.875 5.890625 0.25 C 5.171875 -0.375 4.546875 -1.082031 4.015625 -1.875 C 2.796875 -3.664062 2.007812 -5.925781 1.65625 -8.65625 C 1.625 -8.875 1.609375 -9.171875 1.609375 -9.546875 C 1.609375 -9.929688 1.609375 -10.398438 1.609375 -10.953125 C 1.609375 -11.484375 1.613281 -11.9375 1.625 -12.3125 C 1.644531 -12.695312 1.664062 -13.007812 1.6875 -13.25 C 1.851562 -14.40625 2.140625 -15.523438 2.546875 -16.609375 C 2.953125 -17.703125 3.484375 -18.710938 4.140625 -19.640625 C 4.804688 -20.578125 5.585938 -21.398438 6.484375 -22.109375 C 7.378906 -22.816406 8.40625 -23.363281 9.5625 -23.75 C 10.613281 -24.175781 11.796875 -24.425781 13.109375 -24.5 Z M 14.875 -21.796875 L 14.875 -24.609375 L 15.1875 -24.609375 C 16.175781 -24.609375 17.140625 -24.472656 18.078125 -24.203125 C 19.023438 -23.941406 19.914062 -23.578125 20.75 -23.109375 C 21.59375 -22.648438 22.378906 -22.085938 23.109375 -21.421875 C 23.847656 -20.765625 24.476562 -20.03125 25 -19.21875 C 26.25 -17.320312 27.03125 -15.203125 27.34375 -12.859375 C 27.382812 -12.671875 27.410156 -12.390625 27.421875 -12.015625 C 27.429688 -11.640625 27.4375 -11.210938 27.4375 -10.734375 C 27.394531 -9.347656 27.226562 -7.984375 26.9375 -6.640625 C 26.65625 -5.304688 26.140625 -4.023438 25.390625 -2.796875 C 24.390625 -1.117188 23.113281 0.207031 21.5625 1.1875 C 20.019531 2.164062 18.242188 2.773438 16.234375 3.015625 C 16.046875 3.035156 15.878906 3.050781 15.734375 3.0625 C 15.585938 3.082031 15.46875 3.09375 15.375 3.09375 L 15.09375 3.09375 L 15.046875 1.6875 C 15.023438 0.800781 15.023438 -0.0820312 15.046875 -0.96875 L 15.09375 -2.265625 L 15.546875 -2.375 C 16.441406 -2.632812 17.160156 -3.039062 17.703125 -3.59375 C 18.253906 -4.144531 18.679688 -4.78125 18.984375 -5.5 C 19.285156 -6.21875 19.492188 -6.988281 19.609375 -7.8125 C 19.734375 -8.632812 19.804688 -9.46875 19.828125 -10.3125 C 19.898438 -12.101562 19.695312 -13.726562 19.21875 -15.1875 C 18.476562 -17.46875 17.234375 -18.738281 15.484375 -19 L 14.90625 -19.109375 Z M 14.875 -21.796875 "/></g></g></g><g fill="#970c10" fill-opacity="1"><g transform="translate(269.681388, 55.777458)"><g><path d="M 2.125 -24.21875 C 2.09375 -24.21875 2.113281 -24.226562 2.1875 -24.25 C 2.3125 -24.269531 2.675781 -24.28125 3.28125 -24.28125 C 3.894531 -24.28125 4.765625 -24.28125 5.890625 -24.28125 L 9.921875 -24.28125 L 9.921875 2.734375 L 2.625 2.734375 L 2.625 -23.671875 L 2.484375 -23.890625 C 2.335938 -24.035156 2.21875 -24.144531 2.125 -24.21875 Z M 12.53125 -24.46875 C 12.769531 -24.488281 13.050781 -24.503906 13.375 -24.515625 C 13.695312 -24.523438 14.078125 -24.519531 14.515625 -24.5 C 15.515625 -24.445312 16.429688 -24.335938 17.265625 -24.171875 C 18.109375 -24.003906 18.890625 -23.738281 19.609375 -23.375 C 20.328125 -23.019531 20.988281 -22.5625 21.59375 -22 C 22.207031 -21.4375 22.804688 -20.722656 23.390625 -19.859375 C 24.460938 -18.210938 25.203125 -16.332031 25.609375 -14.21875 C 25.972656 -12.300781 26.070312 -10.445312 25.90625 -8.65625 C 25.726562 -6.957031 25.316406 -5.398438 24.671875 -3.984375 C 24.023438 -2.578125 23.175781 -1.359375 22.125 -0.328125 C 21.070312 0.703125 19.832031 1.5 18.40625 2.0625 C 16.976562 2.625 15.394531 2.90625 13.65625 2.90625 C 13.125 2.90625 12.640625 2.875 12.203125 2.8125 C 11.773438 2.757812 11.367188 2.671875 10.984375 2.546875 C 10.890625 2.523438 10.84375 1.675781 10.84375 0 L 10.84375 -2.515625 L 12 -2.515625 C 13.195312 -2.515625 14.203125 -2.691406 15.015625 -3.046875 C 15.828125 -3.410156 16.484375 -3.921875 16.984375 -4.578125 C 17.492188 -5.234375 17.859375 -6.03125 18.078125 -6.96875 C 18.304688 -7.90625 18.445312 -8.957031 18.5 -10.125 C 18.550781 -11.007812 18.53125 -11.972656 18.4375 -13.015625 C 18.351562 -14.054688 18.160156 -15 17.859375 -15.84375 C 17.640625 -16.46875 17.332031 -16.984375 16.9375 -17.390625 C 16.539062 -17.796875 16.097656 -18.125 15.609375 -18.375 C 15.117188 -18.625 14.59375 -18.804688 14.03125 -18.921875 C 13.46875 -19.046875 12.882812 -19.117188 12.28125 -19.140625 L 10.84375 -19.1875 L 10.84375 -24.140625 L 11.421875 -24.28125 C 11.847656 -24.40625 12.21875 -24.46875 12.53125 -24.46875 Z M 12.53125 -24.46875 "/></g></g></g><g fill="#970c10" fill-opacity="1"><g transform="translate(297.301951, 55.777458)"><g><path d="M 2.046875 -24.21875 C 2.691406 -24.21875 3.804688 -24.226562 5.390625 -24.25 C 6.753906 -24.25 8.695312 -24.253906 11.21875 -24.265625 C 13.75 -24.273438 17.085938 -24.28125 21.234375 -24.28125 L 21.234375 -18.71875 L 9.875 -18.71875 L 9.875 -2.84375 L 22.265625 -2.84375 L 22.265625 -2.65625 C 22.265625 -2.675781 22.242188 -2.609375 22.203125 -2.453125 C 22.171875 -2.304688 22.125 -2.097656 22.0625 -1.828125 C 22.007812 -1.566406 21.953125 -1.273438 21.890625 -0.953125 C 21.828125 -0.628906 21.765625 -0.3125 21.703125 0 C 21.335938 1.695312 21.144531 2.570312 21.125 2.625 C 21.101562 2.695312 18.035156 2.734375 11.921875 2.734375 L 2.796875 2.734375 L 2.796875 -10.3125 C 2.796875 -14.695312 2.789062 -17.945312 2.78125 -20.0625 C 2.769531 -22.175781 2.738281 -23.320312 2.6875 -23.5 C 2.625 -23.851562 2.410156 -24.09375 2.046875 -24.21875 Z M 11.0625 -13.71875 L 20.65625 -13.71875 L 20.65625 -8.21875 L 11.0625 -8.21875 Z M 11.0625 -13.71875 "/></g></g></g><g fill="#011e31" fill-opacity="1"><g transform="translate(112.544658, 79.323285)"><g><path d="M 0.953125 0 L 0.953125 -9.0625 L 5 -9.0625 C 6.851562 -9.0625 7.78125 -8.207031 7.78125 -6.5 C 7.78125 -4.65625 6.515625 -3.539062 3.984375 -3.15625 L 3.75 -4.640625 C 5.257812 -4.921875 6.015625 -5.523438 6.015625 -6.453125 C 6.015625 -7.203125 5.640625 -7.578125 4.890625 -7.578125 L 2.625 -7.578125 L 2.625 0 Z M 0.953125 0 "/></g></g></g><g fill="#011e31" fill-opacity="1"><g transform="translate(122.254552, 79.323285)"><g><path d="M 0.953125 -0.015625 L 0.953125 -9.0625 L 5.0625 -9.0625 C 6.914062 -9.0625 7.84375 -8.25 7.84375 -6.625 C 7.84375 -5.53125 7.125 -4.625 5.6875 -3.90625 L 8.546875 0 L 6.4375 0 L 3.671875 -3.9375 L 3.671875 -4.71875 C 5.273438 -4.988281 6.078125 -5.609375 6.078125 -6.578125 C 6.078125 -7.242188 5.703125 -7.578125 4.953125 -7.578125 L 2.65625 -7.578125 L 2.65625 -0.015625 Z M 0.953125 -0.015625 "/></g></g></g><g fill="#011e31" fill-opacity="1"><g transform="translate(132.420292, 79.323285)"><g><path d="M 2.375 -4.546875 C 2.375 -2.441406 3.3125 -1.390625 5.1875 -1.390625 C 7.007812 -1.390625 7.921875 -2.441406 7.921875 -4.546875 C 7.921875 -6.617188 7.007812 -7.65625 5.1875 -7.65625 C 3.3125 -7.65625 2.375 -6.617188 2.375 -4.546875 Z M 0.640625 -4.515625 C 0.640625 -7.585938 2.15625 -9.125 5.1875 -9.125 C 8.164062 -9.125 9.65625 -7.585938 9.65625 -4.515625 C 9.65625 -1.460938 8.164062 0.0625 5.1875 0.0625 C 2.28125 0.0625 0.765625 -1.460938 0.640625 -4.515625 Z M 0.640625 -4.515625 "/></g></g></g><g fill="#011e31" fill-opacity="1"><g transform="translate(144.48539, 79.323285)"><g><path d="M 6.890625 -9.0625 L 6.890625 -7.609375 L 2.609375 -7.609375 L 2.609375 -5.328125 L 6.6875 -5.328125 L 6.6875 -3.828125 L 2.59375 -3.828125 L 2.59375 0 L 0.953125 0 L 0.953125 -9.0625 Z M 6.890625 -9.0625 "/></g></g></g><g fill="#011e31" fill-opacity="1"><g transform="translate(153.631801, 79.323285)"><g><path d="M 7.15625 -9.0625 L 7.15625 -7.609375 L 2.609375 -7.609375 L 2.609375 -5.328125 L 6.9375 -5.328125 L 6.9375 -3.828125 L 2.59375 -3.828125 L 2.59375 -1.453125 L 7.234375 -1.453125 L 7.234375 0 L 0.953125 0 L 0.953125 -9.0625 Z M 7.15625 -9.0625 "/></g></g></g><g fill="#011e31" fill-opacity="1"><g transform="translate(163.246721, 79.323285)"><g><path d="M 0.796875 -0.375 L 0.796875 -1.90625 C 1.703125 -1.5625 2.726562 -1.390625 3.875 -1.390625 C 5.257812 -1.390625 5.953125 -1.851562 5.953125 -2.78125 C 5.953125 -3.457031 5.523438 -3.796875 4.671875 -3.796875 L 3.25 -3.796875 C 1.394531 -3.796875 0.46875 -4.640625 0.46875 -6.328125 C 0.46875 -8.191406 1.789062 -9.125 4.4375 -9.125 C 5.445312 -9.125 6.40625 -8.972656 7.3125 -8.671875 L 7.3125 -7.15625 C 6.40625 -7.488281 5.445312 -7.65625 4.4375 -7.65625 C 2.914062 -7.65625 2.15625 -7.210938 2.15625 -6.328125 C 2.15625 -5.648438 2.519531 -5.3125 3.25 -5.3125 L 4.671875 -5.3125 C 6.640625 -5.3125 7.625 -4.46875 7.625 -2.78125 C 7.625 -0.882812 6.375 0.0625 3.875 0.0625 C 2.726562 0.0625 1.703125 -0.0820312 0.796875 -0.375 Z M 0.796875 -0.375 "/></g></g></g><g fill="#011e31" fill-opacity="1"><g transform="translate(173.127552, 79.323285)"><g><path d="M 0.796875 -0.375 L 0.796875 -1.90625 C 1.703125 -1.5625 2.726562 -1.390625 3.875 -1.390625 C 5.257812 -1.390625 5.953125 -1.851562 5.953125 -2.78125 C 5.953125 -3.457031 5.523438 -3.796875 4.671875 -3.796875 L 3.25 -3.796875 C 1.394531 -3.796875 0.46875 -4.640625 0.46875 -6.328125 C 0.46875 -8.191406 1.789062 -9.125 4.4375 -9.125 C 5.445312 -9.125 6.40625 -8.972656 7.3125 -8.671875 L 7.3125 -7.15625 C 6.40625 -7.488281 5.445312 -7.65625 4.4375 -7.65625 C 2.914062 -7.65625 2.15625 -7.210938 2.15625 -6.328125 C 2.15625 -5.648438 2.519531 -5.3125 3.25 -5.3125 L 4.671875 -5.3125 C 6.640625 -5.3125 7.625 -4.46875 7.625 -2.78125 C 7.625 -0.882812 6.375 0.0625 3.875 0.0625 C 2.726562 0.0625 1.703125 -0.0820312 0.796875 -0.375 Z M 0.796875 -0.375 "/></g></g></g><g fill="#011e31" fill-opacity="1"><g transform="translate(183.008382, 79.323285)"><g><path d="M 2.625 -9.0625 L 2.625 0 L 0.953125 0 L 0.953125 -9.0625 Z M 2.625 -9.0625 "/></g></g></g><g fill="#011e31" fill-opacity="1"><g transform="translate(188.362414, 79.323285)"><g><path d="M 2.375 -4.546875 C 2.375 -2.441406 3.3125 -1.390625 5.1875 -1.390625 C 7.007812 -1.390625 7.921875 -2.441406 7.921875 -4.546875 C 7.921875 -6.617188 7.007812 -7.65625 5.1875 -7.65625 C 3.3125 -7.65625 2.375 -6.617188 2.375 -4.546875 Z M 0.640625 -4.515625 C 0.640625 -7.585938 2.15625 -9.125 5.1875 -9.125 C 8.164062 -9.125 9.65625 -7.585938 9.65625 -4.515625 C 9.65625 -1.460938 8.164062 0.0625 5.1875 0.0625 C 2.28125 0.0625 0.765625 -1.460938 0.640625 -4.515625 Z M 0.640625 -4.515625 "/></g></g></g><g fill="#011e31" fill-opacity="1"><g transform="translate(200.427512, 79.323285)"><g><path d="M 0.953125 0 L 0.953125 -9.0625 L 2.625 -9.0625 L 7.40625 -2.453125 L 7.40625 -9.0625 L 9.03125 -9.0625 L 9.03125 0 L 7.34375 0 L 2.5625 -6.734375 L 2.5625 0 Z M 0.953125 0 "/></g></g></g><g fill="#011e31" fill-opacity="1"><g transform="translate(212.17605, 79.323285)"><g><path d="M 1.875 0 L 0.15625 0 L 4 -9.0625 L 5.8125 -9.0625 L 9.734375 0 L 7.921875 0 L 6.890625 -2.46875 L 3.890625 -2.46875 L 4.46875 -3.921875 L 6.28125 -3.921875 L 4.859375 -7.328125 Z M 1.875 0 "/></g></g></g><g fill="#011e31" fill-opacity="1"><g transform="translate(223.842277, 79.323285)"><g><path d="M 2.625 -9.0625 L 2.625 -1.453125 L 6.21875 -1.453125 L 6.21875 0 L 0.953125 0 L 0.953125 -9.0625 Z M 2.625 -9.0625 "/></g></g></g><g fill="#011e31" fill-opacity="1"><g transform="translate(232.475868, 79.323285)"><g/></g></g><g fill="#011e31" fill-opacity="1"><g transform="translate(237.101807, 79.323285)"><g><path d="M 8.171875 -0.375 C 7.390625 -0.0820312 6.503906 0.0625 5.515625 0.0625 C 2.265625 0.0625 0.640625 -1.507812 0.640625 -4.65625 C 0.640625 -7.632812 2.265625 -9.125 5.515625 -9.125 C 6.503906 -9.125 7.390625 -8.972656 8.171875 -8.671875 L 8.171875 -7.15625 C 7.390625 -7.488281 6.546875 -7.65625 5.640625 -7.65625 C 3.460938 -7.65625 2.375 -6.65625 2.375 -4.65625 C 2.375 -2.476562 3.460938 -1.390625 5.640625 -1.390625 C 6.546875 -1.390625 7.390625 -1.5625 8.171875 -1.90625 Z M 8.171875 -0.375 "/></g></g></g><g fill="#011e31" fill-opacity="1"><g transform="translate(247.679069, 79.323285)"><g><path d="M 2.375 -4.546875 C 2.375 -2.441406 3.3125 -1.390625 5.1875 -1.390625 C 7.007812 -1.390625 7.921875 -2.441406 7.921875 -4.546875 C 7.921875 -6.617188 7.007812 -7.65625 5.1875 -7.65625 C 3.3125 -7.65625 2.375 -6.617188 2.375 -4.546875 Z M 0.640625 -4.515625 C 0.640625 -7.585938 2.15625 -9.125 5.1875 -9.125 C 8.164062 -9.125 9.65625 -7.585938 9.65625 -4.515625 C 9.65625 -1.460938 8.164062 0.0625 5.1875 0.0625 C 2.28125 0.0625 0.765625 -1.460938 0.640625 -4.515625 Z M 0.640625 -4.515625 "/></g></g></g><g fill="#011e31" fill-opacity="1"><g transform="translate(259.744167, 79.323285)"><g><path d="M 0.953125 0 L 0.953125 -9.0625 L 2.625 -9.0625 L 7.40625 -2.453125 L 7.40625 -9.0625 L 9.03125 -9.0625 L 9.03125 0 L 7.34375 0 L 2.5625 -6.734375 L 2.5625 0 Z M 0.953125 0 "/></g></g></g><g fill="#011e31" fill-opacity="1"><g transform="translate(271.492705, 79.323285)"><g><path d="M 0.796875 -0.375 L 0.796875 -1.90625 C 1.703125 -1.5625 2.726562 -1.390625 3.875 -1.390625 C 5.257812 -1.390625 5.953125 -1.851562 5.953125 -2.78125 C 5.953125 -3.457031 5.523438 -3.796875 4.671875 -3.796875 L 3.25 -3.796875 C 1.394531 -3.796875 0.46875 -4.640625 0.46875 -6.328125 C 0.46875 -8.191406 1.789062 -9.125 4.4375 -9.125 C 5.445312 -9.125 6.40625 -8.972656 7.3125 -8.671875 L 7.3125 -7.15625 C 6.40625 -7.488281 5.445312 -7.65625 4.4375 -7.65625 C 2.914062 -7.65625 2.15625 -7.210938 2.15625 -6.328125 C 2.15625 -5.648438 2.519531 -5.3125 3.25 -5.3125 L 4.671875 -5.3125 C 6.640625 -5.3125 7.625 -4.46875 7.625 -2.78125 C 7.625 -0.882812 6.375 0.0625 3.875 0.0625 C 2.726562 0.0625 1.703125 -0.0820312 0.796875 -0.375 Z M 0.796875 -0.375 "/></g></g></g><g fill="#011e31" fill-opacity="1"><g transform="translate(281.373535, 79.323285)"><g><path d="M 0.953125 -3.5625 L 0.953125 -9.0625 L 2.625 -9.0625 L 2.625 -3.5625 C 2.625 -2.113281 3.363281 -1.390625 4.84375 -1.390625 C 6.320312 -1.390625 7.0625 -2.113281 7.0625 -3.5625 L 7.0625 -9.0625 L 8.734375 -9.0625 L 8.734375 -3.5625 C 8.734375 -1.144531 7.4375 0.0625 4.84375 0.0625 C 2.25 0.0625 0.953125 -1.144531 0.953125 -3.5625 Z M 0.953125 -3.5625 "/></g></g></g><g fill="#011e31" fill-opacity="1"><g transform="translate(292.837164, 79.323285)"><g><path d="M 2.625 -9.0625 L 2.625 -1.453125 L 6.21875 -1.453125 L 6.21875 0 L 0.953125 0 L 0.953125 -9.0625 Z M 2.625 -9.0625 "/></g></g></g><g fill="#011e31" fill-opacity="1"><g transform="translate(301.470755, 79.323285)"><g><path d="M 6.875 -9.0625 L 6.875 -7.59375 L 4.28125 -7.59375 L 4.28125 0 L 2.59375 0 L 2.59375 -7.59375 L 0 -7.59375 L 0 -9.0625 Z M 6.875 -9.0625 "/></g></g></g><g fill="#011e31" fill-opacity="1"><g transform="translate(310.117008, 79.323285)"><g><path d="M 1.875 0 L 0.15625 0 L 4 -9.0625 L 5.8125 -9.0625 L 9.734375 0 L 7.921875 0 L 6.890625 -2.46875 L 3.890625 -2.46875 L 4.46875 -3.921875 L 6.28125 -3.921875 L 4.859375 -7.328125 Z M 1.875 0 "/></g></g></g><g fill="#011e31" fill-opacity="1"><g transform="translate(321.783235, 79.323285)"><g><path d="M 0.953125 0 L 0.953125 -9.0625 L 2.625 -9.0625 L 7.40625 -2.453125 L 7.40625 -9.0625 L 9.03125 -9.0625 L 9.03125 0 L 7.34375 0 L 2.5625 -6.734375 L 2.5625 0 Z M 0.953125 0 "/></g></g></g><g fill="#011e31" fill-opacity="1"><g transform="translate(333.531762, 79.323285)"><g><path d="M 6.875 -9.0625 L 6.875 -7.59375 L 4.28125 -7.59375 L 4.28125 0 L 2.59375 0 L 2.59375 -7.59375 L 0 -7.59375 L 0 -9.0625 Z M 6.875 -9.0625 "/></g></g></g><g fill="#011e31" fill-opacity="1"><g transform="translate(342.178015, 79.323285)"><g><path d="M 0.796875 -0.375 L 0.796875 -1.90625 C 1.703125 -1.5625 2.726562 -1.390625 3.875 -1.390625 C 5.257812 -1.390625 5.953125 -1.851562 5.953125 -2.78125 C 5.953125 -3.457031 5.523438 -3.796875 4.671875 -3.796875 L 3.25 -3.796875 C 1.394531 -3.796875 0.46875 -4.640625 0.46875 -6.328125 C 0.46875 -8.191406 1.789062 -9.125 4.4375 -9.125 C 5.445312 -9.125 6.40625 -8.972656 7.3125 -8.671875 L 7.3125 -7.15625 C 6.40625 -7.488281 5.445312 -7.65625 4.4375 -7.65625 C 2.914062 -7.65625 2.15625 -7.210938 2.15625 -6.328125 C 2.15625 -5.648438 2.519531 -5.3125 3.25 -5.3125 L 4.671875 -5.3125 C 6.640625 -5.3125 7.625 -4.46875 7.625 -2.78125 C 7.625 -0.882812 6.375 0.0625 3.875 0.0625 C 2.726562 0.0625 1.703125 -0.0820312 0.796875 -0.375 Z M 0.796875 -0.375 "/></g></g></g><path fill="#f1f0f0" d="M 83.210938 73.175781 C 83.316406 82.152344 77.699219 91.054688 68.5625 97.382812 C 64.875 99.9375 60.617188 102.074219 55.921875 103.625 C 54.277344 104.171875 52.582031 104.644531 50.835938 105.039062 C 38.726562 107.777344 27.007812 106.117188 18.585938 101.304688 C 12.378906 97.757812 7.960938 92.496094 6.496094 86.023438 C 4.464844 77.023438 8.597656 67.683594 16.65625 60.566406 C 19.335938 58.199219 22.449219 56.074219 25.917969 54.289062 C 25.851562 54.375 25.789062 54.453125 25.726562 54.539062 C 25.972656 54.363281 26.214844 54.1875 26.460938 54.015625 C 29.089844 52.703125 31.917969 51.585938 34.902344 50.703125 L 42.164062 21.234375 L 55.359375 21.234375 L 43.421875 48.902344 C 46.179688 48.554688 48.894531 48.425781 51.527344 48.507812 C 53.820312 48.578125 56.046875 48.808594 58.199219 49.183594 C 59.648438 49.4375 61.058594 49.761719 62.425781 50.144531 C 65.535156 51.554688 67.867188 54.371094 68.617188 57.78125 C 68.785156 58.539062 68.871094 59.328125 68.871094 60.136719 C 68.871094 66.1875 63.964844 71.09375 57.914062 71.09375 C 51.863281 71.09375 46.957031 66.1875 46.957031 60.136719 C 46.957031 59.269531 47.054688 58.433594 47.246094 57.625 C 46.929688 57.6875 46.617188 57.753906 46.304688 57.828125 C 43.378906 58.488281 40.59375 59.359375 37.996094 60.40625 L 29.734375 77.921875 L 26.109375 85.601562 L 28.382812 76.570312 L 31.679688 63.484375 C 28.210938 65.511719 25.277344 67.863281 23.03125 70.394531 C 21.371094 72.265625 20.082031 74.234375 19.238281 76.238281 C 18.097656 78.933594 17.757812 81.691406 18.363281 84.371094 C 19.5625 89.671875 24.242188 93.664062 30.847656 95.832031 C 37.480469 98.011719 46.0625 98.351562 54.996094 96.332031 C 56.402344 96.015625 57.769531 95.648438 59.105469 95.238281 C 72.921875 90.988281 82.699219 81.984375 83.210938 73.175781 Z M 99.4375 58.148438 C 96.777344 46.375 86.609375 37.847656 73.628906 34.878906 C 79.65625 29.570312 82.742188 23.15625 81.378906 17.109375 C 78.816406 5.761719 61.527344 -0.00390625 42.769531 4.234375 C 29.265625 7.28125 18.679688 14.683594 14.765625 22.824219 C 13.242188 25.992188 12.726562 29.273438 13.445312 32.453125 C 13.496094 32.691406 13.558594 32.925781 13.625 33.160156 C 15.25 37.175781 19.1875 40.003906 23.785156 40.003906 C 24.660156 40.003906 25.507812 39.902344 26.324219 39.710938 C 31.152344 38.566406 34.742188 34.226562 34.742188 29.046875 C 34.742188 24.964844 32.507812 21.402344 29.195312 19.519531 C 32.769531 16.867188 37.433594 14.726562 42.726562 13.53125 C 56.011719 10.53125 68.246094 14.613281 70.0625 22.648438 C 70.910156 26.40625 69.332031 30.359375 66.050781 33.8125 C 62.449219 37.605469 56.789062 40.796875 50.042969 42.453125 C 53.6875 42.121094 57.265625 42.195312 60.691406 42.648438 C 75.632812 44.601562 87.753906 53.652344 90.691406 66.664062 C 92.636719 75.261719 90.214844 84.019531 84.695312 91.339844 C 96.0625 83.074219 102.214844 70.449219 99.4375 58.148438 Z M 99.4375 58.148438 " fill-opacity="1" fill-rule="nonzero"/><path fill="#303030" d="M 83.210938 73.175781 C 83.316406 82.152344 77.699219 91.054688 68.5625 97.382812 C 64.875 99.9375 60.617188 102.074219 55.921875 103.625 C 54.277344 104.171875 52.582031 104.644531 50.835938 105.039062 C 38.726562 107.777344 27.007812 106.117188 18.585938 101.304688 C 12.378906 97.757812 7.960938 92.496094 6.496094 86.023438 C 4.464844 77.023438 8.597656 67.683594 16.65625 60.566406 C 19.335938 58.199219 22.449219 56.074219 25.917969 54.289062 C 25.851562 54.375 25.789062 54.453125 25.726562 54.539062 C 25.972656 54.363281 26.214844 54.1875 26.460938 54.015625 C 29.089844 52.703125 31.917969 51.585938 34.902344 50.703125 L 42.164062 21.234375 L 55.359375 21.234375 L 43.421875 48.902344 C 46.179688 48.554688 48.894531 48.425781 51.527344 48.507812 C 53.820312 48.578125 56.046875 48.808594 58.199219 49.183594 C 59.648438 49.4375 61.058594 49.761719 62.425781 50.144531 C 65.535156 51.554688 67.867188 54.371094 68.617188 57.78125 C 68.785156 58.539062 68.871094 59.328125 68.871094 60.136719 C 68.871094 66.1875 63.964844 71.09375 57.914062 71.09375 C 51.863281 71.09375 46.957031 66.1875 46.957031 60.136719 C 46.957031 59.269531 47.054688 58.433594 47.246094 57.625 C 46.929688 57.6875 46.617188 57.753906 46.304688 57.828125 C 43.378906 58.488281 40.59375 59.359375 37.996094 60.40625 L 29.734375 77.921875 L 26.109375 85.601562 L 28.382812 76.570312 L 31.679688 63.484375 C 28.210938 65.511719 25.277344 67.863281 23.03125 70.394531 C 21.371094 72.265625 20.082031 74.234375 19.238281 76.238281 C 18.097656 78.933594 17.757812 81.691406 18.363281 84.371094 C 19.5625 89.671875 24.242188 93.664062 30.847656 95.832031 C 37.480469 98.011719 46.0625 98.351562 54.996094 96.332031 C 56.402344 96.015625 57.769531 95.648438 59.105469 95.238281 C 72.921875 90.988281 82.699219 81.984375 83.210938 73.175781 Z M 99.4375 58.148438 C 96.777344 46.375 86.609375 37.847656 73.628906 34.878906 C 79.65625 29.570312 82.742188 23.15625 81.378906 17.109375 C 78.816406 5.761719 61.527344 -0.00390625 42.769531 4.234375 C 29.265625 7.28125 18.679688 14.683594 14.765625 22.824219 C 13.242188 25.992188 12.726562 29.273438 13.445312 32.453125 C 13.496094 32.691406 13.558594 32.925781 13.625 33.160156 C 15.25 37.175781 19.1875 40.003906 23.785156 40.003906 C 24.660156 40.003906 25.507812 39.902344 26.324219 39.710938 C 31.152344 38.566406 34.742188 34.226562 34.742188 29.046875 C 34.742188 24.964844 32.507812 21.402344 29.195312 19.519531 C 32.769531 16.867188 37.433594 14.726562 42.726562 13.53125 C 56.011719 10.53125 68.246094 14.613281 70.0625 22.648438 C 70.910156 26.40625 69.332031 30.359375 66.050781 33.8125 C 62.449219 37.605469 56.789062 40.796875 50.042969 42.453125 C 53.6875 42.121094 57.265625 42.195312 60.691406 42.648438 C 75.632812 44.601562 87.753906 53.652344 90.691406 66.664062 C 92.636719 75.261719 90.214844 84.019531 84.695312 91.339844 C 96.0625 83.074219 102.214844 70.449219 99.4375 58.148438 Z M 99.4375 58.148438 " fill-opacity="1" fill-rule="nonzero"/><path fill="#353f4f" d="M 79.085938 73.175781 C 79.191406 82.152344 73.578125 91.054688 64.4375 97.382812 C 60.75 99.9375 56.492188 102.074219 51.800781 103.625 C 50.152344 104.171875 48.457031 104.644531 46.710938 105.039062 C 34.601562 107.777344 22.882812 106.117188 14.464844 101.304688 C 8.253906 97.757812 3.835938 92.496094 2.375 86.023438 C 0.339844 77.023438 4.476562 67.683594 12.53125 60.566406 C 15.210938 58.199219 18.328125 56.074219 21.792969 54.289062 C 21.730469 54.375 21.667969 54.453125 21.605469 54.539062 C 21.847656 54.363281 22.089844 54.1875 22.339844 54.015625 C 24.96875 52.703125 27.792969 51.585938 30.777344 50.703125 L 38.039062 21.234375 L 51.234375 21.234375 L 39.300781 48.902344 C 42.054688 48.554688 44.769531 48.425781 47.402344 48.507812 C 49.695312 48.578125 51.925781 48.808594 54.074219 49.183594 C 55.523438 49.4375 56.933594 49.761719 58.300781 50.144531 C 61.410156 51.554688 63.746094 54.371094 64.492188 57.78125 C 64.660156 58.539062 64.746094 59.328125 64.746094 60.136719 C 64.746094 66.1875 59.839844 71.09375 53.789062 71.09375 C 47.738281 71.09375 42.832031 66.1875 42.832031 60.136719 C 42.832031 59.269531 42.929688 58.433594 43.121094 57.625 C 42.804688 57.6875 42.492188 57.753906 42.179688 57.828125 C 39.253906 58.488281 36.46875 59.359375 33.875 60.40625 L 25.609375 77.921875 L 21.984375 85.601562 L 24.261719 76.570312 L 27.554688 63.484375 C 24.089844 65.511719 21.152344 67.863281 18.90625 70.394531 C 17.246094 72.265625 15.957031 74.234375 15.113281 76.238281 C 13.972656 78.933594 13.632812 81.691406 14.238281 84.371094 C 15.4375 89.671875 20.117188 93.664062 26.722656 95.832031 C 33.359375 98.011719 41.9375 98.351562 50.875 96.332031 C 52.277344 96.015625 53.644531 95.648438 54.980469 95.238281 C 68.796875 90.988281 78.574219 81.984375 79.085938 73.175781 Z M 95.3125 58.148438 C 92.652344 46.375 82.484375 37.847656 69.503906 34.878906 C 75.53125 29.570312 78.621094 23.15625 77.253906 17.109375 C 74.691406 5.761719 57.40625 -0.00390625 38.644531 4.234375 C 25.140625 7.28125 14.554688 14.683594 10.640625 22.824219 C 9.117188 25.992188 8.601562 29.273438 9.320312 32.453125 C 9.375 32.691406 9.433594 32.925781 9.503906 33.160156 C 11.128906 37.175781 15.0625 40.003906 19.660156 40.003906 C 20.535156 40.003906 21.382812 39.902344 22.199219 39.710938 C 27.027344 38.566406 30.617188 34.226562 30.617188 29.046875 C 30.617188 24.964844 28.382812 21.402344 25.070312 19.519531 C 28.644531 16.867188 33.308594 14.726562 38.601562 13.53125 C 51.886719 10.53125 64.121094 14.613281 65.9375 22.648438 C 66.785156 26.40625 65.207031 30.359375 61.925781 33.8125 C 58.324219 37.605469 52.664062 40.796875 45.917969 42.453125 C 49.5625 42.121094 53.140625 42.195312 56.566406 42.648438 C 71.511719 44.601562 83.628906 53.652344 86.566406 66.664062 C 88.511719 75.261719 86.089844 84.019531 80.570312 91.339844 C 91.9375 83.074219 98.089844 70.449219 95.3125 58.148438 Z M 95.3125 58.148438 " fill-opacity="1" fill-rule="nonzero"/><path fill="#800000" d="M 79.085938 73.175781 C 79.191406 82.152344 73.578125 91.054688 64.4375 97.382812 C 60.75 99.9375 56.492188 102.074219 51.800781 103.625 C 50.152344 104.171875 48.457031 104.644531 46.710938 105.039062 C 34.601562 107.777344 22.882812 106.117188 14.464844 101.304688 C 8.253906 97.757812 3.835938 92.496094 2.375 86.023438 C 0.339844 77.023438 4.476562 67.683594 12.53125 60.566406 C 15.210938 58.199219 18.328125 56.074219 21.792969 54.289062 C 21.730469 54.375 21.667969 54.453125 21.605469 54.539062 C 21.847656 54.363281 22.089844 54.1875 22.339844 54.015625 C 24.96875 52.703125 27.792969 51.585938 30.777344 50.703125 L 38.039062 21.234375 L 51.234375 21.234375 L 39.300781 48.902344 C 42.054688 48.554688 44.769531 48.425781 47.402344 48.507812 C 49.695312 48.578125 51.925781 48.808594 54.074219 49.183594 C 55.523438 49.4375 56.933594 49.761719 58.300781 50.144531 C 61.410156 51.554688 63.746094 54.371094 64.492188 57.78125 C 64.660156 58.539062 64.746094 59.328125 64.746094 60.136719 C 64.746094 66.1875 59.839844 71.09375 53.789062 71.09375 C 47.738281 71.09375 42.832031 66.1875 42.832031 60.136719 C 42.832031 59.269531 42.929688 58.433594 43.121094 57.625 C 42.804688 57.6875 42.492188 57.753906 42.179688 57.828125 C 39.253906 58.488281 36.46875 59.359375 33.875 60.40625 L 25.609375 77.921875 L 21.984375 85.601562 L 24.261719 76.570312 L 27.554688 63.484375 C 24.089844 65.511719 21.152344 67.863281 18.90625 70.394531 C 17.246094 72.265625 15.957031 74.234375 15.113281 76.238281 C 13.972656 78.933594 13.632812 81.691406 14.238281 84.371094 C 15.4375 89.671875 20.117188 93.664062 26.722656 95.832031 C 33.359375 98.011719 41.9375 98.351562 50.875 96.332031 C 52.277344 96.015625 53.644531 95.648438 54.980469 95.238281 C 68.796875 90.988281 78.574219 81.984375 79.085938 73.175781 Z M 95.3125 58.148438 C 92.652344 46.375 82.484375 37.847656 69.503906 34.878906 C 75.53125 29.570312 78.621094 23.15625 77.253906 17.109375 C 74.691406 5.761719 57.40625 -0.00390625 38.644531 4.234375 C 25.140625 7.28125 14.554688 14.683594 10.640625 22.824219 C 9.117188 25.992188 8.601562 29.273438 9.320312 32.453125 C 9.375 32.691406 9.433594 32.925781 9.503906 33.160156 C 11.128906 37.175781 15.0625 40.003906 19.660156 40.003906 C 20.535156 40.003906 21.382812 39.902344 22.199219 39.710938 C 27.027344 38.566406 30.617188 34.226562 30.617188 29.046875 C 30.617188 24.964844 28.382812 21.402344 25.070312 19.519531 C 28.644531 16.867188 33.308594 14.726562 38.601562 13.53125 C 51.886719 10.53125 64.121094 14.613281 65.9375 22.648438 C 66.785156 26.40625 65.207031 30.359375 61.925781 33.8125 C 58.324219 37.605469 52.664062 40.796875 45.917969 42.453125 C 49.5625 42.121094 53.140625 42.195312 56.566406 42.648438 C 71.511719 44.601562 83.628906 53.652344 86.566406 66.664062 C 88.511719 75.261719 86.089844 84.019531 80.570312 91.339844 C 91.9375 83.074219 98.089844 70.449219 95.3125 58.148438 Z M 95.3125 58.148438 " fill-opacity="1" fill-rule="nonzero"/></svg>